<?xml version="1.0" encoding="UTF-8"?>
<svg version="1.1" xmlns="http://www.w3.org/2000/svg" width="512" height="512">
<path d="M0 0 C1.13195111 -0.00352835 1.13195111 -0.00352835 2.28676993 -0.00712797 C4.829863 -0.0138151 7.37290495 -0.01335983 9.91600609 -0.01294994 C11.75199314 -0.01624874 13.58797946 -0.01997435 15.42396486 -0.02409142 C20.48072433 -0.03411766 25.53747194 -0.03782922 30.59423995 -0.04048073 C36.04363304 -0.04438191 41.49301671 -0.05396036 46.94240379 -0.0626936 C60.10812047 -0.0824629 73.27383791 -0.09252465 86.43956572 -0.10142139 C92.63760876 -0.10580338 98.83565095 -0.11117041 105.03369331 -0.11641026 C125.63390551 -0.13342273 146.23411718 -0.14791742 166.83433533 -0.155159 C172.18108814 -0.15706893 177.52784094 -0.1589876 182.87459373 -0.16094494 C183.87098479 -0.16130516 183.87098479 -0.16130516 184.88750496 -0.16167267 C206.42270836 -0.16956497 227.95785666 -0.19299547 249.493036 -0.22550088 C272.26318849 -0.2598076 295.03331357 -0.27950978 317.8034929 -0.28280324 C330.21502142 -0.2849695 342.62646896 -0.2937352 355.0379734 -0.31926441 C365.60706271 -0.3409536 376.17605138 -0.34903056 386.74516042 -0.33929763 C392.13776532 -0.33474785 397.53016251 -0.33667876 402.92273903 -0.35605907 C407.86138337 -0.37365475 412.7996679 -0.37272211 417.73831587 -0.35716178 C419.52302357 -0.35478026 421.30775596 -0.35913741 423.0924259 -0.37099043 C433.21506452 -0.43404551 442.60069549 -0.4862289 450.97273827 5.99359608 C451.47933983 6.61750233 451.98594139 7.24140858 452.50789452 7.88422108 C453.29486717 8.8046117 453.29486717 8.8046117 454.09773827 9.74359608 C458.0719385 16.19508294 459.23869085 22.93444675 460.19539452 30.32172108 C460.31656639 31.17830311 460.43773827 32.03488514 460.56258202 32.9174242 C462.27648448 45.4829374 462.73917433 58.00995383 462.77351952 70.67328358 C462.78045552 72.26555881 462.78745062 73.85783379 462.79450035 75.45010853 C462.81377659 80.55314863 462.81842314 85.65614889 462.82039452 90.75922108 C462.82149916 92.05936649 462.82149916 92.05936649 462.82262611 93.38577747 C462.83841567 116.16729846 462.62562476 138.88709754 461.25789452 161.63422108 C461.19904076 162.65719288 461.140187 163.68016468 461.07954979 164.73413563 C459.01258069 199.46247494 459.01258069 199.46247494 446.75789452 211.00922108 C439.42553699 216.97643718 431.74275181 219.25554957 422.42469501 219.26844215 C421.70075126 219.27079438 420.97680751 219.27314661 420.23092607 219.27557012 C417.79222295 219.28225515 415.35357319 219.28180205 412.91486168 219.2813921 C411.1538337 219.28469103 409.39280647 219.28841667 407.63178021 219.29253358 C402.78217963 219.30255835 397.93259142 219.30627114 393.08298194 219.30892289 C387.85647548 219.31282453 382.62997883 219.32240298 377.40347862 219.33113575 C364.77613747 219.35090433 352.1487955 219.36096697 339.52144274 219.36986354 C333.57606475 219.37424588 327.63068765 219.37961284 321.68531036 219.38485241 C301.92320598 219.40186525 282.16110216 219.41635957 262.39899158 219.42360115 C257.26984659 219.42551107 252.1407016 219.4274314 247.01155663 219.42938709 C245.73672092 219.42987083 244.46188522 219.43035457 243.14841814 219.43085297 C222.4955239 219.4391538 201.84268756 219.46449139 181.18981861 219.49696777 C159.98947505 219.53003344 138.78916092 219.54804948 117.58879143 219.55124539 C105.68416412 219.55341096 93.77962126 219.56216657 81.87501907 219.58770657 C71.73671334 219.60940682 61.59851256 219.61746727 51.46018624 219.60773978 C46.2882081 219.60319314 41.11644654 219.60510269 35.94449806 219.62450123 C31.20625897 219.64211941 26.46839466 219.64114597 21.73015166 219.62560394 C20.01944971 219.62322583 18.30872189 219.62756192 16.59805947 219.63943259 C3.68444952 219.72346536 -7.64737659 218.40046427 -17.42960548 209.13422108 C-28.33332701 197.62333176 -28.43186237 183.08243416 -29.42960548 168.13422108 C-29.55468483 166.27438335 -29.55468483 166.27438335 -29.68229103 164.37697315 C-31.13712738 142.15535824 -31.77908859 120.00930575 -31.74527931 97.74115467 C-31.74061997 94.40898713 -31.74770773 91.0771823 -31.76578712 87.74506092 C-31.85615178 70.88584764 -31.73838411 54.13672985 -30.09757423 37.34515858 C-29.98110039 36.14670307 -29.86462654 34.94824757 -29.74462318 33.71347523 C-28.60139709 23.40309718 -26.98575242 13.74108041 -19.42960548 6.13422108 C-13.0642848 1.20385708 -7.98262029 -0.01686654 0 0 Z M-11.42960548 20.13422108 C-28.95462833 55.18426676 -17.16635759 121.68848073 -14.99210548 159.19672108 C-14.93075417 160.28301807 -14.86940285 161.36931507 -14.8061924 162.48853016 C-14.62818943 165.5910783 -14.43915801 168.69273888 -14.24601173 171.79437733 C-14.19387016 172.70823704 -14.14172859 173.62209675 -14.08800697 174.56364918 C-13.43733317 184.50576686 -12.32026217 192.96163522 -4.49210548 199.88422108 C1.32557561 204.15843576 5.88444192 204.40283573 12.88289452 204.25922108 C13.71885155 204.25019764 14.55480858 204.2411742 15.41609764 204.23187733 C17.46765421 204.20843097 19.51906228 204.17256374 21.57039452 204.13422108 C21.5745034 202.82340565 21.57861229 201.51259022 21.58284569 200.16205311 C21.60475387 195.26013291 21.65916422 190.35900211 21.72298241 185.45746326 C21.74606086 183.3432829 21.76053409 181.22898921 21.76595116 179.11468983 C21.77531513 176.06059445 21.8164682 173.00825656 21.86336327 169.95453358 C21.85746429 168.55547276 21.85746429 168.55547276 21.85144615 167.12814808 C22.00034223 160.30473056 23.62748456 154.77687757 27.57039452 149.13422108 C32.82981005 144.77800985 37.61826597 143.01141369 44.4457407 143 C45.67990229 142.99554216 46.91406388 142.99108431 48.1856243 142.98649138 C49.56259422 142.98658068 50.93956414 142.98677054 52.31653404 142.98705006 C53.77360199 142.98375142 55.23066903 142.98002586 56.6877349 142.97590858 C60.70167046 142.96588037 64.71559106 142.96217047 68.72953737 142.95951927 C73.0548379 142.95561865 77.38012657 142.94604015 81.70541954 142.9373064 C92.1559085 142.91753521 102.60639844 142.90747499 113.05690143 142.89857861 C117.97658442 142.89419682 122.89626634 142.88882973 127.81594849 142.88358974 C144.16726235 142.86657687 160.51857553 142.85208226 176.86989689 142.844841 C181.11405691 142.84293107 185.35821693 142.84101074 189.60237694 142.83905506 C191.1847009 142.83832945 191.1847009 142.83832945 192.798991 142.83758918 C209.8909252 142.82928725 226.98278946 142.80394783 244.07469311 142.77147438 C261.61714063 142.73841629 279.15955259 142.72039338 296.70203143 142.71719676 C306.55369612 142.71503052 316.4052588 142.70626509 326.25689316 142.68073559 C334.64630581 142.65904568 343.03559167 142.65096975 351.42502918 142.66070237 C355.70552848 142.66525203 359.9857661 142.6633223 364.26622963 142.64394093 C368.18649063 142.62634379 372.10629839 142.62727866 376.02656398 142.64283822 C377.44316728 142.64521956 378.85980167 142.64086339 380.27635738 142.62900957 C388.21620751 142.56669512 393.7619576 142.92741621 400.57039452 147.13422108 C401.56039452 147.46422108 402.55039452 147.79422108 403.57039452 148.13422108 C404.57039452 149.75922108 404.57039452 149.75922108 405.57039452 152.13422108 C406.07546532 153.12107899 406.58053612 154.1079369 407.10091209 155.12469959 C409.12843795 159.87900704 409.04772086 164.55812758 409.08211327 169.66156483 C409.10904007 171.14494091 409.10904007 171.14494091 409.13651085 172.65828419 C409.19040257 175.79605398 409.2244419 178.9336735 409.25789452 182.07172108 C409.29108622 184.2078096 409.32557758 186.34387835 409.36141014 188.4799242 C409.4461166 193.69788833 409.51455536 198.91587244 409.57039452 204.13422108 C412.40478589 204.24323613 415.23489655 204.32200012 418.07039452 204.38422108 C418.86187889 204.4177367 419.65336327 204.45125233 420.46883202 204.48578358 C427.26143424 204.59713771 432.41715852 202.85525677 437.59383202 198.38812733 C438.03984764 197.82996326 438.48586327 197.2717992 438.94539452 196.69672108 C439.40687889 196.14113514 439.86836327 195.5855492 440.34383202 195.01312733 C443.50996012 190.16310306 444.08230565 185.23832728 444.57039452 179.57172108 C444.65088036 178.67026356 444.7313662 177.76880604 444.814291 176.84003162 C448.69099185 131.04392276 450.83926223 84.18964351 446.19539452 38.38422108 C446.02475487 36.67033192 446.02475487 36.67033192 445.85066795 34.92181873 C444.76677615 25.07334397 444.76677615 25.07334397 439.43229574 16.97933251 C435.90666667 14.7063056 433.12859052 14.57497735 429.06903744 14.6280632 C427.94368822 14.61889316 427.94368822 14.61889316 426.79560468 14.60953787 C424.27324193 14.59389575 421.75183492 14.60682053 419.22946739 14.61955738 C417.40626078 14.614234 415.58305856 14.60716952 413.75986475 14.59851032 C408.74315571 14.57982844 403.72674075 14.58620705 398.71001923 14.59666336 C393.30228078 14.60363965 387.89460371 14.58766938 382.48688316 14.57466602 C371.89024567 14.5529944 361.29371542 14.55316103 350.69706304 14.56129157 C342.08642893 14.56758473 333.47582618 14.56646082 324.86519241 14.56001949 C323.02874259 14.55866701 323.02874259 14.55866701 321.15519277 14.55728721 C318.66824082 14.55543605 316.18128888 14.55357349 313.69433694 14.55169965 C290.35878323 14.53511013 267.02328993 14.54385016 243.68773984 14.56068522 C222.32665094 14.57538299 200.9657159 14.5607547 179.60464341 14.53191506 C157.68446023 14.50254038 135.764342 14.49154317 113.84413999 14.50109726 C111.36589747 14.50211984 108.88765493 14.50311445 106.40941238 14.50408077 C105.18999486 14.50455716 103.97057733 14.50503355 102.71420776 14.50552438 C94.11229568 14.50769107 85.51044492 14.49787087 76.90854645 14.48330975 C66.42789849 14.46581623 55.94742989 14.4658609 45.46678907 14.4886614 C40.11717221 14.4998307 34.76787169 14.50290525 29.4182682 14.48436069 C24.52357435 14.46761113 19.62947411 14.47383187 14.73481911 14.49857748 C12.96165949 14.50347938 11.18845249 14.49989473 9.41533232 14.48709004 C7.00869923 14.47096106 4.60413197 14.48550174 2.19759274 14.50780869 C1.15969869 14.48982117 1.15969869 14.48982117 0.10083708 14.47147027 C-5.41647568 14.57622812 -7.68790998 16.36753944 -11.42960548 20.13422108 Z M36.57039452 162.13422108 C36.57039452 175.99422108 36.57039452 189.85422108 36.57039452 204.13422108 C154.71039452 204.13422108 272.85039452 204.13422108 394.57039452 204.13422108 C394.57039452 190.27422108 394.57039452 176.41422108 394.57039452 162.13422108 C389.66008563 156.84474959 389.66008563 156.84474959 383.53427696 156.50501537 C382.31518355 156.49197664 381.09609015 156.4789379 379.84005451 156.46550405 C378.49047987 156.47631392 377.14090895 156.48759718 375.79134178 156.49930286 C374.35514939 156.49354167 372.91896436 156.48560057 371.48279476 156.47566664 C367.53579654 156.45476916 363.58940178 156.46512127 359.64240122 156.48059773 C355.38600645 156.4918956 351.12971655 156.47445633 346.87334251 156.46069813 C338.53495481 156.4384444 330.19679191 156.44327637 321.85839534 156.45776133 C315.08269894 156.4690452 308.30706563 156.47058817 301.53136253 156.46514225 C300.56765789 156.46437608 299.60395324 156.46360992 298.61104542 156.46282054 C296.65340573 156.46122194 294.69576605 156.45960087 292.7381264 156.45795758 C274.37370862 156.44369383 256.00941555 156.46010262 237.64501822 156.48695941 C221.88147441 156.50929876 206.11811469 156.5054188 190.3545742 156.48236561 C172.05666986 156.45561866 153.75887487 156.44506718 135.46095371 156.46042693 C133.51044466 156.4620197 131.55993559 156.46359155 129.6094265 156.46514225 C128.16982869 156.46629932 128.16982869 156.46629932 126.70114809 156.46747976 C119.93220528 156.47180008 113.16333173 156.46450306 106.39439964 156.45274448 C98.14726068 156.43873322 89.90035971 156.44249043 81.65324807 156.4691482 C77.44395677 156.48230499 73.23506252 156.48740736 69.025774 156.47090244 C65.17408646 156.45602792 61.32316483 156.46414873 57.47154701 156.4907902 C56.07660426 156.49638592 54.6815971 156.49351016 53.2866956 156.48141126 C51.39334548 156.46624585 49.49981464 156.48476568 47.60651207 156.50501537 C46.02771342 156.50623302 46.02771342 156.50623302 44.41701984 156.50747526 C40.76296244 157.04411339 40.76296244 157.04411339 36.57039452 162.13422108 Z " fill="#000000" transform="translate(40.42960548400879,92.86577892303467)"/>
<path d="M0 0 C1.25023689 -0.00935994 1.25023689 -0.00935994 2.52573109 -0.01890898 C5.32888076 -0.03491062 8.13116948 -0.02220694 10.93432617 -0.00964355 C12.93973296 -0.01506149 14.94513577 -0.0221823 16.95053101 -0.03088379 C22.40502507 -0.04915908 27.85921737 -0.04203222 33.31371689 -0.02936745 C39.01384055 -0.01926156 44.71393786 -0.0286264 50.4140625 -0.03491211 C59.98759617 -0.04219555 69.56100653 -0.03258251 79.13452148 -0.0135498 C90.21305504 0.0082202 101.29129418 0.00116933 112.36982059 -0.02085543 C121.87051195 -0.03898956 131.37111452 -0.04157747 140.87181759 -0.03110075 C146.55103827 -0.02485489 152.23012042 -0.02406017 157.90933228 -0.0372467 C163.24784802 -0.04877566 168.58598306 -0.04083354 173.92445755 -0.01766968 C175.88728833 -0.01236677 177.85015098 -0.01392324 179.81296921 -0.02272034 C182.48561311 -0.03359715 185.15702516 -0.02000825 187.82958984 0 C189.0040427 -0.01338433 189.0040427 -0.01338433 190.20222187 -0.02703905 C195.41201756 0.0489937 195.41201756 0.0489937 197.89668274 2.31702423 C199.38813408 5.52652926 199.29510521 8.02175697 198.91479492 11.50793457 C197.08364285 14.1238661 196.00511126 14.47782912 192.91479492 15.50793457 C190.29138474 15.60794829 187.69443718 15.65137453 185.0708313 15.64837646 C184.26325249 15.65134759 183.45567367 15.65431871 182.62362278 15.65737987 C179.90833251 15.66607512 177.1930863 15.6675758 174.4777832 15.66906738 C172.53473821 15.67369493 170.59169414 15.6787195 168.64865112 15.68411255 C163.36353798 15.69724361 158.07843755 15.70368274 152.79331064 15.70812321 C149.49314483 15.71105244 146.19298251 15.71515693 142.89281845 15.71962738 C132.57237009 15.73330338 122.25192969 15.74296987 111.9314729 15.74682927 C100.00843613 15.7513122 88.08551388 15.76887062 76.16251194 15.79782987 C66.95225606 15.8194257 57.74203245 15.82953241 48.53175151 15.83087039 C43.02797031 15.83191981 37.52429674 15.83785677 32.02054214 15.85569 C26.84461703 15.87213469 21.66888088 15.87434373 16.492939 15.86555099 C14.5922139 15.86477872 12.69147879 15.86914831 10.79077911 15.87900925 C8.19786803 15.8916736 5.6056318 15.88588217 3.01272583 15.87542725 C2.25892863 15.88348365 1.50513144 15.89154006 0.7284919 15.89984059 C-4.13768753 15.85388679 -7.58162555 15.0115141 -11.08520508 11.50793457 C-11.34208205 8.10431474 -11.51740523 5.44853503 -10.0749054 2.30921173 C-7.048077 -0.43097824 -3.88155984 -0.04423513 0 0 Z " fill="#000000" transform="translate(162.085205078125,141.4920654296875)"/>
<path d="M0 0 C2.66542441 2.05439751 3.85113862 3.27101706 4.53125 6.6015625 C4.28188345 30.72777667 -4.84294396 55.00889976 -21 73 C-24.19267515 74.59633757 -27.52693615 74.36932376 -31 74 C-33 73 -33 73 -34 71 C-34.63653791 67.7015763 -34.83727182 66.15462414 -34 63 C-32.2661798 60.45527164 -30.30226135 58.20791318 -28.29296875 55.875 C-17.66961802 42.55509175 -13.05034409 25.87945352 -11.5546875 9.171875 C-10.96268098 5.78659829 -10.02251414 3.75705908 -8 1 C-5.15916359 -0.42041821 -3.14522722 -0.31452272 0 0 Z " fill="#000000" transform="translate(136,343)"/>
<path d="M0 0 C3.38495202 0.49363884 4.57334806 1.07151436 7 3.4375 C7.6875 6.01171875 7.6875 6.01171875 8 9.125 C10.40705624 27.9209696 16.40043135 45.87972143 28.4375 60.8125 C30.43823679 63.39098966 30.9859429 64.35628118 31.5625 67.6875 C30.90378277 70.90789536 30.57355733 72.34648467 28 74.4375 C23.43623945 75.09998137 21.24923808 75.34319761 17.5 72.625 C16.63611979 71.58718418 15.80791939 70.51945053 15 69.4375 C14.39414062 68.68210937 13.78828125 67.92671875 13.1640625 67.1484375 C-0.201243 49.78890278 -6.87891033 29.05826349 -7.4609375 7.28515625 C-6.71666053 2.68703835 -4.56303746 0.66544296 0 0 Z " fill="#000000" transform="translate(379,342.5625)"/>
<path d="M0 0 C2.1328125 1.34765625 2.1328125 1.34765625 4 4 C4.70487516 7.56067338 4.83042046 11.12968074 5 14.75 C6.21303098 32.29787591 10.16793801 47.56270312 20.21484375 62.234375 C22.51558134 65.79875621 22.6939135 67.83651902 22 72 C19.36909854 75.18897147 17.77468456 75.89768317 13.6875 76.4375 C5.14916363 73.10899599 1.02122916 62.82090012 -2.62573242 54.83154297 C-8.92861489 40.2525742 -13.06239092 21.92254498 -11 6 C-8.2576906 0.48465505 -6.17010706 -0.61701071 0 0 Z " fill="#000000" transform="translate(319,343)"/>
<path d="M0 0 C3.1359157 1.77984405 3.84102736 2.52308207 5 6 C6.38779499 27.5592338 0.95253116 49.4187189 -10.625 67.625 C-11.00938232 68.22957031 -11.39376465 68.83414063 -11.78979492 69.45703125 C-13.68593077 72.33602839 -15.09152279 74.0610152 -18 76 C-21.36187193 75.81989972 -23.99918142 75.58112046 -26.9375 73.875 C-28.63968513 70.87114389 -28.26760143 68.39783396 -28 65 C-26.42578125 61.89453125 -26.42578125 61.89453125 -24.3125 58.8125 C-14.67483897 44.09331784 -11.77174144 29.15060787 -10.90942383 11.86987305 C-10.44379754 4.62740608 -10.44379754 4.62740608 -8.12109375 1.34375 C-5.19983775 -0.50691678 -3.396098 -0.49526429 0 0 Z " fill="#000000" transform="translate(199,343)"/>
<path d="M0 0 C3.74382468 0.62397078 4.69747124 1.52099594 7 4.5 C7.49447632 7.54237366 7.49447632 7.54237366 7.48583984 11.14868164 C7.48963654 11.80768967 7.49343323 12.46669769 7.49734497 13.14567566 C7.50473707 15.31765789 7.4833917 17.48829356 7.4609375 19.66015625 C7.45855239 21.17182763 7.4576479 22.683502 7.4581604 24.19517517 C7.45503486 27.36020518 7.43848774 30.5247814 7.41162109 33.68969727 C7.37761225 37.74744128 7.36999347 41.80468756 7.37151146 45.86255741 C7.37096779 48.98266861 7.36000157 52.10267091 7.34550858 55.2227459 C7.33914323 56.71907159 7.33520229 58.21540962 7.33372116 59.71174812 C7.32938686 61.80161718 7.31188487 63.89095741 7.29052734 65.98071289 C7.28290375 67.16999893 7.27528015 68.35928497 7.26742554 69.58460999 C7 72.5 7 72.5 5 75.5 C1.52854767 76.33572001 -0.95649876 76.85698727 -4.375 75.6875 C-6 74.5 -6 74.5 -7 72.5 C-7.11231391 70.36688587 -7.15935439 68.23023427 -7.17700195 66.09423828 C-7.18357315 65.4371286 -7.19014435 64.78001892 -7.19691467 64.10299683 C-7.21664782 61.92543426 -7.22830953 59.74794062 -7.23828125 57.5703125 C-7.24235678 56.82692501 -7.2464323 56.08353752 -7.25063133 55.31762314 C-7.27149107 51.38378934 -7.28579378 47.44999043 -7.29516602 43.51611328 C-7.30623694 39.45156167 -7.34064423 35.38755657 -7.38033772 31.32319832 C-7.40647145 28.19879126 -7.41485486 25.07451514 -7.41844749 21.95000839 C-7.42332107 20.45167215 -7.43495709 18.95334206 -7.45348549 17.45511246 C-7.47781238 15.3578166 -7.47692503 13.26194427 -7.4699707 11.16455078 C-7.47583694 9.97145294 -7.48170319 8.7783551 -7.48774719 7.54910278 C-6.73141084 2.82094171 -4.69615209 0.78269201 0 0 Z " fill="#000000" transform="translate(256,342.5)"/>
<path d="M0 0 C3.95364129 2.46170118 5.67678008 3.9542885 7.0625 8.4375 C6.99077767 12.52567307 6.27796642 14.62232566 4 18 C0.65274664 20.62998478 -2.8824152 20.43342998 -7 20 C-9.75329021 18.20437595 -11.52627461 16.94745078 -13 14 C-13.57884232 6.93812375 -13.57884232 6.93812375 -11.1875 3.0625 C-7.74390783 -0.18431547 -4.59448491 -0.54052764 0 0 Z " fill="#000000" transform="translate(429,139)"/>
</svg>
