<?xml version="1.0" encoding="UTF-8"?>
<svg version="1.1" xmlns="http://www.w3.org/2000/svg" width="512" height="512">
<path d="M0 0 C0.78211294 -0.00453111 1.56422589 -0.00906223 2.37003922 -0.01373065 C4.98147435 -0.02635485 7.5927004 -0.02475556 10.2041626 -0.02310181 C12.08042671 -0.02908835 13.95668836 -0.03589419 15.83294678 -0.04345703 C20.92402284 -0.06111278 26.01503165 -0.06581227 31.10613537 -0.0670886 C34.28927241 -0.06851116 37.4723924 -0.07278277 40.65552521 -0.07808304 C51.76745182 -0.09658287 62.87933047 -0.10475383 73.99127197 -0.10317993 C84.33751553 -0.10197899 94.68355031 -0.12307226 105.02974105 -0.15466726 C113.92167443 -0.18085037 122.81353971 -0.19154635 131.70551133 -0.19026911 C137.01214072 -0.18976002 142.3185846 -0.19541394 147.62517548 -0.21662521 C152.61900257 -0.23604146 157.61246786 -0.23610885 162.60630798 -0.22159195 C164.43398316 -0.21950687 166.26168118 -0.22418676 168.08931732 -0.23631287 C179.05907142 -0.30435241 187.95232108 0.15870784 197.30670166 6.45492554 C204.47184466 13.7829127 208.30234718 21.110511 208.31397057 31.47739887 C208.31747664 32.18398902 208.32098271 32.89057917 208.32459503 33.61858115 C208.33389887 35.98625263 208.3289884 38.3536776 208.3241272 40.72135925 C208.32786397 42.43604234 208.3324656 44.15072372 208.33785784 45.8654024 C208.35009988 50.57754501 208.34982596 55.28961668 208.34746909 60.00177157 C208.34706123 65.08369647 208.35809711 70.16559854 208.36758423 75.24751282 C208.38420165 85.20396878 208.38969411 95.16040106 208.39080898 105.11686973 C208.39175908 113.20923563 208.39586743 121.30159371 208.40221024 129.39395714 C208.41982443 152.33333306 208.42904879 175.27269027 208.42754929 198.21207301 C208.42746938 199.44890624 208.42738946 200.68573947 208.42730713 201.96005249 C208.42722537 203.19839443 208.42714361 204.43673637 208.42705937 205.71260383 C208.42624635 225.78473918 208.44538756 245.85679951 208.47358386 265.92891315 C208.50230195 286.53492804 208.51612476 307.14090633 208.51439631 327.74694175 C208.51373205 339.31724095 208.51924009 350.8874615 208.54075241 362.45774269 C208.55895001 372.30840521 208.56332319 382.15895343 208.54973356 392.00962547 C208.54319685 397.0355485 208.54311219 402.06125214 208.56044006 407.08715439 C208.57614453 411.68952223 208.57333397 416.29149626 208.5558718 420.89385434 C208.55279613 422.55735211 208.55645563 424.22087908 208.56759195 425.88434241 C208.62053705 434.35500603 208.64946214 441.82029964 204.05670166 449.26742554 C203.48930206 450.2419135 203.48930206 450.2419135 202.91043985 451.2360881 C198.73112138 458.13515224 191.66344054 462.13671611 184.05670166 464.26742554 C181.37068709 464.45360204 178.79026308 464.54634001 176.10667419 464.53485107 C175.32385568 464.53938219 174.54103717 464.5439133 173.73449689 464.54858172 C171.12072784 464.56120592 168.50716768 464.55960664 165.89337158 464.55795288 C164.01548496 464.56393937 162.13760079 464.5707452 160.25971985 464.57830811 C155.16457884 464.59596314 150.06950503 464.60066328 144.97433639 464.60193968 C141.78919703 464.60336213 138.60407471 464.60763353 135.41893959 464.61293411 C124.30168194 464.63143285 113.18447223 464.63960493 102.06719971 464.63803101 C91.71298385 464.6368297 81.35897648 464.6579304 71.00481337 464.68951833 C62.10780013 464.71569125 53.21085493 464.72639787 44.31380349 464.72512019 C39.00329368 464.72461085 33.69296917 464.73027863 28.38249779 464.75147629 C23.38621147 464.77087565 18.39028691 464.77097143 13.39398766 464.75644302 C11.56427989 464.75435593 9.73454938 464.75904985 7.90488052 464.77116394 C-9.72548267 464.88029725 -9.72548267 464.88029725 -16.94329834 460.26742554 C-17.91446704 459.70000924 -17.91446704 459.70000924 -18.90525532 459.12112999 C-25.82561886 454.94533533 -29.78416336 447.87390696 -31.94329834 440.26742554 C-32.196298 436.86633706 -32.196298 436.86633706 -32.20056725 433.06024551 C-32.20407332 432.35395496 -32.20757939 431.64766441 -32.21119171 430.91997111 C-32.22049552 428.5533089 -32.21558508 426.18689332 -32.21072388 423.82022095 C-32.21446065 422.10625055 -32.21906229 420.39228186 -32.22445452 418.67831588 C-32.23669659 413.96810388 -32.23642263 409.25796284 -32.23406577 404.54773855 C-32.23365791 399.46783953 -32.24469385 394.38796335 -32.25418091 389.30807495 C-32.27079864 379.355294 -32.27629081 369.40253673 -32.27740566 359.44974306 C-32.2783558 351.35976943 -32.28246436 343.26980362 -32.28880692 335.17983246 C-32.30642164 312.24552219 -32.31564545 289.31123065 -32.31414597 266.37691358 C-32.31406605 265.14034307 -32.31398614 263.90377256 -32.31390381 262.62973022 C-32.31382205 261.39165059 -32.31374029 260.15357096 -32.31365605 258.87797377 C-32.31284314 238.81298049 -32.33198138 218.74806228 -32.36018054 198.68309072 C-32.38890379 178.08272106 -32.40272113 157.48238802 -32.40099299 136.88199782 C-32.40032888 125.31557912 -32.40583025 113.74923911 -32.42734909 102.18283844 C-32.44555353 92.33476635 -32.44991426 82.48680861 -32.43633024 72.63872698 C-32.42979684 67.61470529 -32.42969695 62.59090303 -32.44703674 57.56690216 C-32.46275592 52.96509888 -32.45991556 48.36368924 -32.44246848 43.76189563 C-32.43939605 42.09972595 -32.44304016 40.43752698 -32.45418863 38.77539185 C-32.52522936 27.42982248 -31.76486317 17.49114646 -23.64642334 8.79867554 C-16.67513172 2.53090876 -9.3456737 -0.04004829 0 0 Z M-11.88079834 22.01742554 C-15.4032913 27.5680205 -16.1931129 32.85695745 -16.19777393 39.35056877 C-16.20098041 40.03129879 -16.20418689 40.7120288 -16.20749053 41.413387 C-16.21577061 43.68707551 -16.20987334 45.96049923 -16.20399475 48.23419189 C-16.20701635 49.88374095 -16.21090587 51.53328861 -16.21558732 53.18283379 C-16.22587502 57.71029651 -16.22368352 62.23768012 -16.21940672 66.76514935 C-16.21694091 71.65005171 -16.22595187 76.53493495 -16.23344421 81.41983032 C-16.24619725 90.98779491 -16.24798415 100.55573145 -16.24564395 110.12370311 C-16.24386131 117.90044601 -16.24560928 125.67718039 -16.24986839 133.45392227 C-16.25046358 134.56051983 -16.25105877 135.66711739 -16.251672 136.80724821 C-16.25288374 139.05526589 -16.25409787 141.30328358 -16.25531437 143.55130126 C-16.26619224 164.63600341 -16.26402625 185.72068958 -16.25792953 206.80539264 C-16.25276014 226.09500263 -16.26401596 245.38456213 -16.28302775 264.67416213 C-16.30239887 284.48015933 -16.31066342 304.28613263 -16.30690449 324.09213936 C-16.30499135 335.21192405 -16.30749106 346.33166575 -16.32161903 357.45144272 C-16.33352454 366.91779198 -16.33494703 376.38407181 -16.32282887 385.85042201 C-16.31693437 390.67986624 -16.31585655 395.50918341 -16.32783127 400.33861923 C-16.33867021 404.76140312 -16.33561039 409.18395355 -16.32156958 413.60672642 C-16.31891718 415.20491696 -16.32130625 416.80312567 -16.32930545 418.40129839 C-16.76531745 431.34645948 -16.76531745 431.34645948 -11.66839296 442.83663166 C-6.22141957 447.88922983 0.39815871 448.51669831 7.51956177 448.52812195 C8.23789786 448.5319475 8.95623396 448.53577304 9.69633782 448.53971452 C12.0859036 448.54997336 14.4752259 448.54606603 16.86480713 448.54208374 C18.58520732 448.54643417 20.30560558 448.55161843 22.02600098 448.55757141 C26.68722104 448.57093736 31.3483599 448.57154273 36.00959539 448.56900811 C39.90609961 448.56793671 43.80258751 448.57282611 47.69908822 448.57761353 C56.8946398 448.58870052 66.09015053 448.58915075 75.28570557 448.58309937 C84.7600235 448.57706023 94.23419289 448.58937093 103.70848548 448.61066943 C111.85393241 448.62830478 119.99933214 448.63428372 128.14479744 448.63103169 C133.00477458 448.62922169 137.86464577 448.63182669 142.72460556 448.64574623 C147.29652588 448.65835133 151.86821524 448.65635515 156.44013214 448.64333534 C158.11341811 448.64097581 159.78672047 448.64368183 161.45998764 448.65195847 C174.77809973 449.15908228 174.77809973 449.15908228 186.62260246 443.9925127 C191.57328161 438.66830189 192.3061653 432.1667822 192.31117725 425.1842823 C192.31598697 424.16318728 192.31598697 424.16318728 192.32089385 423.12146407 C192.32917393 420.84777556 192.32327666 418.57435185 192.31739807 416.30065918 C192.32041967 414.65111012 192.32430919 413.00156247 192.32899064 411.35201728 C192.33927834 406.82455456 192.33708684 402.29717096 192.33281004 397.76970172 C192.33034423 392.88479936 192.33935519 387.99991612 192.34684753 383.11502075 C192.35960057 373.54705616 192.36138747 363.97911963 192.35904727 354.41114797 C192.35726463 346.63440507 192.3590126 338.85767068 192.36327171 331.0809288 C192.3641645 329.42103246 192.3641645 329.42103246 192.36507532 327.72760286 C192.36628706 325.47958518 192.3675012 323.2315675 192.36871769 320.98354982 C192.37959556 299.89884766 192.37742957 278.8141615 192.37133285 257.72945844 C192.36616346 238.43984844 192.37741928 219.15028894 192.39643107 199.86068894 C192.41580219 180.05469174 192.42406674 160.24871844 192.42030782 140.44271171 C192.41839467 129.32292702 192.42089438 118.20318532 192.43502235 107.08340836 C192.44692786 97.61705909 192.44835035 88.15077927 192.43623219 78.68442906 C192.4303377 73.85498483 192.42925987 69.02566766 192.44123459 64.19623184 C192.45207353 59.77344795 192.44901371 55.35089753 192.4349729 50.92812465 C192.4323205 49.32993412 192.43470957 47.7317254 192.44270877 46.13355269 C192.87872078 33.18839159 192.87872078 33.18839159 187.78179628 21.69821942 C182.33482289 16.64562125 175.71524461 16.01815276 168.59384155 16.00672913 C167.87550546 16.00290358 167.15716936 15.99907803 166.4170655 15.99513656 C164.02749972 15.98487772 161.63817742 15.98878505 159.24859619 15.99276733 C157.528196 15.9884169 155.80779774 15.98323264 154.08740234 15.97727966 C149.42618228 15.96391372 144.76504342 15.96330834 140.10380793 15.96584296 C136.20730371 15.96691436 132.31081582 15.96202496 128.4143151 15.95723754 C119.21876352 15.94615055 110.02325279 15.94570033 100.82769775 15.95175171 C91.35337982 15.95779085 81.87921043 15.94548014 72.40491784 15.92418164 C64.25947091 15.9065463 56.11407118 15.90056735 47.96860588 15.90381938 C43.10862874 15.90562938 38.24875755 15.90302438 33.38879776 15.88910484 C28.81687744 15.87649975 24.24518808 15.87849593 19.67327118 15.89151573 C17.99998521 15.89387527 16.32668285 15.89116924 14.65341568 15.88289261 C0.21845164 15.32053574 0.21845164 15.32053574 -11.88079834 22.01742554 Z " fill="#000000" transform="translate(167.94329833984375,23.732574462890625)"/>
<path d="M0 0 C2.50754797 2.19362001 4.87134964 4.46853018 7.21484375 6.8359375 C7.9728125 7.56039063 8.73078125 8.28484375 9.51171875 9.03125 C23.47700456 23.2373166 29.82933294 42.67852081 30.46484375 62.2734375 C30.19025419 84.07584832 22.35630612 103.65382915 7.45703125 119.68359375 C-6.59084609 133.16857705 -25.19123483 141.99200455 -44.78515625 142.8359375 C-45.53539062 142.87589844 -46.285625 142.91585937 -47.05859375 142.95703125 C-68.32006792 143.54189381 -88.07376108 136.2229796 -104.16015625 122.5234375 C-120.62273213 106.74338964 -129.30194758 86.00570484 -130.03515625 63.3984375 C-129.89307255 50.91085878 -127.323993 39.04057574 -121.78515625 27.8359375 C-121.15673828 26.47082031 -121.15673828 26.47082031 -120.515625 25.078125 C-116.57911687 17.11435351 -110.99002002 11.05825517 -104.78515625 4.8359375 C-104.06457031 4.09214844 -103.34398437 3.34835937 -102.6015625 2.58203125 C-75.0728127 -24.01001251 -29.23195044 -22.71318449 0 0 Z M-95.59765625 18.0859375 C-105.36287137 28.65078562 -112.03921664 43.41443839 -112.78515625 57.8359375 C-112.83542969 58.47917969 -112.88570312 59.12242187 -112.9375 59.78515625 C-113.69390456 76.15375102 -107.35110521 92.36032466 -96.41015625 104.3984375 C-83.96200436 117.38744012 -67.98915085 124.65923882 -49.97265625 125.2734375 C-32.35248545 124.80356628 -16.97128543 118.04290298 -4.4453125 105.66015625 C6.85788484 93.65984541 13.04636668 78.71208527 13.52734375 62.1484375 C12.74921065 44.80255373 6.28562986 27.57738894 -6.62109375 15.5546875 C-34.30959917 -6.43618323 -69.05519874 -6.10922785 -95.59765625 18.0859375 Z " fill="#000000" transform="translate(305.78515625,293.1640625)"/>
<path d="M0 0 C0.65355469 0.48082031 1.30710937 0.96164063 1.98046875 1.45703125 C18.03936022 14.20859953 27.16648935 33.97024056 29.72265625 53.95703125 C31.5608296 74.12515855 26.78929701 94.94526192 14.25 111.125 C3.95188689 123.29905022 -7.01115932 132.2579078 -22 138 C-23.02738281 138.39445313 -24.05476563 138.78890625 -25.11328125 139.1953125 C-45.28954307 145.73031916 -67.54414169 143.34151048 -86.375 134.1875 C-92.45065203 131.06308512 -97.93686534 127.62534483 -103 123 C-103.83015625 122.24976563 -104.6603125 121.49953125 -105.515625 120.7265625 C-119.6433225 107.31793942 -128.79376615 88.55560945 -130 69 C-130.07927734 67.73349609 -130.07927734 67.73349609 -130.16015625 66.44140625 C-130.77522533 46.73245358 -124.79018483 28.76010508 -113 13 C-112.51917969 12.34644531 -112.03835937 11.69289063 -111.54296875 11.01953125 C-99.51237447 -4.13139007 -80.15788046 -14.09813138 -61.18359375 -16.71875 C-38.64144745 -18.71020342 -18.2173435 -13.62845273 0 0 Z M-100.1171875 23.5390625 C-109.21486919 35.83850341 -114.70323994 51.57751236 -113 67 C-110.15429868 85.64044661 -102.39620208 101.55787871 -87 113 C-73.57167496 122.19774162 -57.92635408 126.92455682 -41.66796875 124.50390625 C-22.9805005 120.85706846 -7.96940663 112.09496533 2.90234375 96.22265625 C8.66576453 86.95000676 12.27171793 76.92423101 13 66 C13.07734375 65.03126953 13.07734375 65.03126953 13.15625 64.04296875 C13.88540412 47.66738247 7.57376467 31.48421232 -3.375 19.4375 C-15.92224396 6.34509993 -31.82369518 -0.67940098 -50 -1.375 C-70.35297199 -0.50177018 -87.15759684 7.99711799 -100.1171875 23.5390625 Z " fill="#000000" transform="translate(306,94)"/>
<path d="M0 0 C1.21429688 -0.02578125 2.42859375 -0.0515625 3.6796875 -0.078125 C7.36441521 0.27280145 9.20316773 1.02897621 12.125 3.25 C13.68971233 6.37942465 13.82201958 9.86082223 13.125 13.25 C11.66796875 15.4765625 11.66796875 15.4765625 9.125 17.25 C6.11218231 17.83409849 3.18520558 17.80866209 0.125 17.75 C-0.68195313 17.76546875 -1.48890625 17.7809375 -2.3203125 17.796875 C-6.10716993 17.77187924 -8.23685138 17.68952609 -11.41015625 15.50390625 C-13.05306028 12.97602458 -13.38835234 11.67608233 -13.3125 8.6875 C-13.31121094 7.92308594 -13.30992187 7.15867188 -13.30859375 6.37109375 C-12.77256987 3.74892289 -11.97219643 2.87347676 -9.875 1.25 C-6.42834258 0.10111419 -3.63148095 0.0460653 0 0 Z " fill="#000000" transform="translate(292.875,147.75)"/>
<path d="M0 0 C1.21429688 -0.02578125 2.42859375 -0.0515625 3.6796875 -0.078125 C7.36441521 0.27280145 9.20316773 1.02897621 12.125 3.25 C13.68971233 6.37942465 13.82201958 9.86082223 13.125 13.25 C11.66796875 15.4765625 11.66796875 15.4765625 9.125 17.25 C6.11218231 17.83409849 3.18520558 17.80866209 0.125 17.75 C-0.68195313 17.76546875 -1.48890625 17.7809375 -2.3203125 17.796875 C-6.13088262 17.77172272 -8.23488665 17.69975607 -11.41015625 15.46875 C-13.6760862 12.03662143 -13.56012583 9.22209855 -12.875 5.25 C-9.92653988 -0.22571165 -5.76396216 0.0731158 0 0 Z " fill="#000000" transform="translate(219.875,147.75)"/>
<path d="M0 0 C0.80695313 -0.01546875 1.61390625 -0.0309375 2.4453125 -0.046875 C6.25461782 -0.02173107 8.35861597 0.04865569 11.53125 2.28125 C13.51330768 5.27542224 13.56771975 7.10132662 13.3984375 10.59765625 C12.79104423 13.49766139 11.33500208 14.78308671 9 16.5 C6.07539571 17.96230215 3.44347176 17.70908727 0.1875 17.75 C-1.64748047 17.78867187 -1.64748047 17.78867187 -3.51953125 17.828125 C-7.50652391 17.4522469 -10.14994485 16.35005515 -13 13.5 C-13.23828125 11.57421875 -13.23828125 11.57421875 -13.3125 9.1875 C-13.34988281 8.40761719 -13.38726562 7.62773437 -13.42578125 6.82421875 C-13 4.5 -13 4.5 -11.54296875 2.23828125 C-7.77996781 -0.33396978 -4.45581717 -0.08541503 0 0 Z " fill="#000000" transform="translate(293,346.5)"/>
<path d="M0 0 C0.80695313 -0.01546875 1.61390625 -0.0309375 2.4453125 -0.046875 C6.25588262 -0.02172272 8.35988665 0.05024393 11.53515625 2.28125 C13.8010862 5.71337857 13.68512583 8.52790145 13 12.5 C11.25746655 15.73613354 10.52814056 16.32395315 7 17.5 C4.71148355 17.64619515 2.41799684 17.72091336 0.125 17.75 C-1.08929688 17.77578125 -2.30359375 17.8015625 -3.5546875 17.828125 C-7.23941521 17.47719855 -9.07816773 16.72102379 -12 14.5 C-13.56471233 11.37057535 -13.69701958 7.88917777 -13 4.5 C-9.69142055 -0.55600612 -5.49965378 -0.10542467 0 0 Z " fill="#000000" transform="translate(220,346.5)"/>
</svg>
