<?xml version="1.0" encoding="UTF-8"?>
<svg version="1.1" xmlns="http://www.w3.org/2000/svg" width="512" height="512">
<path d="M0 0 C1.14404297 -0.0112793 2.28808594 -0.02255859 3.46679688 -0.03417969 C5.34334961 -0.0220343 5.34334961 -0.0220343 7.2578125 -0.00964355 C8.59180465 -0.01506511 9.9257908 -0.02218797 11.25976562 -0.03088379 C14.87966598 -0.04911656 18.49911024 -0.04205017 22.11901855 -0.02936745 C25.9074832 -0.01923938 29.69590882 -0.02863258 33.484375 -0.03491211 C39.84642548 -0.04218911 46.20829022 -0.03259956 52.5703125 -0.0135498 C59.92541387 0.00821921 67.28007173 0.00116786 74.63516235 -0.02085543 C80.95036617 -0.03900805 87.26543648 -0.04156848 93.58065796 -0.03110075 C97.35234853 -0.02486499 101.12383064 -0.02403225 104.89550781 -0.0372467 C108.44153603 -0.04880278 111.98699253 -0.04078487 115.53295898 -0.01766968 C117.45490737 -0.00985857 119.37690412 -0.02174065 121.29882812 -0.03417969 C123.01489258 -0.01726074 123.01489258 -0.01726074 124.765625 0 C125.75965332 0.0015081 126.75368164 0.0030162 127.77783203 0.00457001 C131.13764187 0.65379146 132.32141407 1.81907241 134.3828125 4.50793457 C134.82469981 7.36344087 135.00156568 9.7192543 134.9453125 12.57043457 C134.93435547 13.36046875 134.92339844 14.15050293 134.91210938 14.96447754 C134.02929457 39.84514159 120.26981189 59.88913146 107.41357422 80.27111816 C105.47374989 83.36299012 103.56778704 86.47340422 101.66796875 89.58996582 C100.53246689 91.41754537 99.39581517 93.24441118 98.2578125 95.07043457 C97.75032471 95.91509277 97.24283691 96.75975098 96.7199707 97.63000488 C96.23488037 98.39538574 95.74979004 99.1607666 95.25 99.94934082 C94.63294189 100.95009644 94.63294189 100.95009644 94.00341797 101.97106934 C92.3828125 103.50793457 92.3828125 103.50793457 86.3828125 104.50793457 C86.3828125 146.74793457 86.3828125 188.98793457 86.3828125 232.50793457 C89.6828125 232.50793457 92.9828125 232.50793457 96.3828125 232.50793457 C99.921875 233.24230957 99.921875 233.24230957 103.0078125 234.25793457 C104.10222656 234.61629395 105.19664062 234.97465332 106.32421875 235.34387207 C109.00593686 236.36450042 111.43350494 237.50775501 113.9453125 238.88293457 C115.0796875 239.41918457 116.2140625 239.95543457 117.3828125 240.50793457 C120.29991838 239.46081363 122.32863375 237.83264407 124.5546875 235.71496582 C125.13234863 235.17082031 125.71000977 234.6266748 126.30517578 234.06604004 C126.9082959 233.48999023 127.51141602 232.91394043 128.1328125 232.32043457 C129.39504355 231.13079396 130.65805782 229.94198377 131.921875 228.75402832 C132.52418945 228.18667969 133.12650391 227.61933105 133.74707031 227.03479004 C136.21830356 224.72805978 138.76889913 222.52036628 141.328125 220.31262207 C144.05205953 217.92011683 146.71624519 215.46387515 149.3828125 213.00793457 C153.29258018 209.40775567 157.24147853 205.86375734 161.2578125 202.38293457 C164.00104668 199.96243382 166.69165818 197.48592815 169.3828125 195.00793457 C173.29262845 191.40780701 177.24147718 187.86375852 181.2578125 184.38293457 C184.00105119 181.96242984 186.69146499 179.48572272 189.3828125 177.00793457 C193.28402139 173.42072689 197.18688632 169.84100262 201.20703125 166.38684082 C202.93566542 164.89407056 204.64184437 163.37530484 206.33984375 161.84777832 C213.1853487 155.76471921 219.7925869 150.95810715 228.3828125 147.50793457 C229.18203125 147.1702002 229.98125 146.83246582 230.8046875 146.48449707 C245.35974543 141.43194511 262.30285033 144.31507173 277.1328125 146.69543457 C278.39327393 146.89137207 279.65373535 147.08730957 280.95239258 147.28918457 C289.96246597 148.85458803 299.37133565 151.05370328 305.3828125 158.50793457 C306.1871875 159.46699707 306.1871875 159.46699707 307.0078125 160.44543457 C311.52182864 167.21645878 311.03211269 174.69135925 310.3828125 182.50793457 C308.16152306 191.54773908 299.75779307 196.78869003 292.28515625 201.41809082 C289.96788041 202.81032442 287.64677439 204.19383896 285.3203125 205.57043457 C284.07086127 206.31803803 282.82192671 207.06650561 281.57348633 207.8157959 C279.04773464 209.33080826 276.51986376 210.84217988 273.99023438 212.35070801 C268.82967568 215.43178664 263.70022651 218.56368931 258.5703125 221.69543457 C256.69934697 222.83496804 254.82825378 223.97429192 252.95703125 225.11340332 C252.03970215 225.67205078 251.12237305 226.23069824 250.17724609 226.80627441 C245.41286169 229.70752894 240.64779752 232.60766664 235.8828125 235.50793457 C233.96614269 236.67459608 232.04947602 237.84126274 230.1328125 239.00793457 C195.6328125 260.00793457 195.6328125 260.00793457 192.75488281 261.75964355 C190.84789367 262.92046889 188.9409919 264.08143777 187.03417969 265.24255371 C182.09517209 268.24980612 177.15444083 271.25417112 172.2109375 274.25402832 C170.68436523 275.18118652 170.68436523 275.18118652 169.12695312 276.1270752 C167.20434823 277.29468456 165.28121611 278.46142647 163.35742188 279.6270752 C157.70884407 283.05907032 152.13431981 286.58362356 146.60644531 290.20739746 C144.3828125 291.50793457 144.3828125 291.50793457 142.3828125 291.50793457 C142.7128125 293.81793457 143.0428125 296.12793457 143.3828125 298.50793457 C143.91565825 298.71886057 144.44850401 298.92978657 144.9974966 299.14710426 C157.99891748 304.29452984 170.99567111 309.45358815 183.98740292 314.62542152 C190.27037585 317.1262675 196.55483507 319.6232407 202.84301758 322.11096191 C208.91575371 324.51346136 214.98405947 326.9269351 221.04980659 329.34702682 C223.36030082 330.26680312 225.67224465 331.18294686 227.98567009 332.09532547 C231.2352076 333.37762264 234.47926773 334.67294732 237.72241211 335.97131348 C238.67188217 336.34247284 239.62135223 336.7136322 240.59959412 337.09603882 C248.92419018 340.4565344 257.45769288 344.32496381 261.5703125 352.75012207 C263.63964526 359.77391499 263.82160223 368.28490995 260.8203125 375.07043457 C256.64326743 381.81233188 250.88985159 385.29179954 243.3828125 387.50793457 C221.81803088 392.46372024 196.47095904 397.22839049 175.3828125 388.50793457 C173.94228516 387.92398926 173.94228516 387.92398926 172.47265625 387.32824707 C163.79304377 383.37978271 156.26932339 377.65738166 148.58496094 372.0880127 C145.01437685 369.52605923 141.38711371 367.04817985 137.7578125 364.57043457 C136.49441336 363.70770706 135.23137617 362.8444492 133.96875 361.98059082 C133.37416992 361.57856445 132.77958984 361.17653809 132.16699219 360.7623291 C130.93229786 359.89425857 129.72554269 358.98557436 128.54394531 358.04650879 C125.02222496 355.22871547 125.02222496 355.22871547 120.69921875 354.52355957 C118.29076996 355.54704877 116.41501579 356.69195215 114.3203125 358.25793457 C102.86937251 366.19725297 90.85055488 368.81999088 77.17578125 368.80871582 C75.4340136 368.81514351 75.4340136 368.81514351 73.65705872 368.82170105 C71.2087977 368.82742453 68.76051969 368.82795929 66.31225586 368.8236084 C62.59263673 368.82045351 58.87381759 368.84391631 55.15429688 368.8692627 C52.76562599 368.87153658 50.37695299 368.87223877 47.98828125 368.87121582 C46.88896774 368.88042557 45.78965424 368.88963531 44.6570282 368.89912415 C33.56484504 368.83360213 25.55259339 366.02783719 15.3828125 361.50793457 C14.8878125 405.06793457 14.8878125 405.06793457 14.3828125 449.50793457 C16.0328125 450.16793457 17.6828125 450.82793457 19.3828125 451.50793457 C24.70273965 454.9808184 28.72256609 459.29920244 30.3828125 465.50793457 C31.17222791 472.47432211 31.5159945 479.58803375 27.78515625 485.76184082 C23.86425271 490.64385721 19.42665281 494.63469752 13.3828125 496.50793457 C5.54673042 497.31307562 -2.23641327 497.63253849 -8.6171875 492.50793457 C-13.66239972 487.70344818 -17.22281745 483.34616402 -17.953125 476.23840332 C-18.04738438 467.6890773 -17.72220304 461.81483612 -11.7109375 455.50793457 C-8.41070664 452.45398959 -6.0320367 450.48690439 -1.6171875 449.50793457 C-1.58565606 436.3812731 -1.59185574 423.25521584 -1.64565372 410.12861061 C-1.66946378 404.03271196 -1.68048657 397.93735909 -1.66186523 391.84143066 C-1.64435728 385.95367856 -1.66098874 380.06690494 -1.70086479 374.1792717 C-1.71012824 371.93793803 -1.70728197 369.69651917 -1.69188118 367.45521927 C-1.09084826 352.2139277 -1.09084826 352.2139277 -7.94752502 339.18643188 C-8.77400795 338.35557571 -8.77400795 338.35557571 -9.6171875 337.50793457 C-11.359375 334.33605957 -11.359375 334.33605957 -12.4921875 331.75793457 C-12.88148438 330.89684082 -13.27078125 330.03574707 -13.671875 329.14855957 C-14.69926455 326.2786615 -15.14961407 323.51428156 -15.6171875 320.50793457 C-16.77841157 320.51484802 -16.77841157 320.51484802 -17.96309471 320.52190113 C-36.82669399 320.63247125 -55.69022832 320.71513527 -74.55408287 320.76699543 C-83.67663611 320.79274324 -92.79897262 320.82782804 -101.92138672 320.88513184 C-109.87535713 320.93507193 -117.82917052 320.96725046 -125.78329337 320.97837704 C-129.99242894 320.98487793 -134.20111545 321.00008466 -138.41010666 321.03658485 C-142.37793419 321.07071247 -146.3451309 321.08095414 -150.31309128 321.07347298 C-151.76345253 321.07484009 -153.21383651 321.08467286 -154.66407013 321.10396194 C-163.29978714 321.21311613 -170.46788703 320.74574367 -177.6171875 315.50793457 C-184.36697762 308.35552938 -186.19827916 301.83255476 -185.96484375 292.05871582 C-184.73691886 279.51732568 -174.12741879 270.7033435 -164.89355469 263.08605957 C-150.68680381 251.981548 -136.53703791 248.19096638 -118.82421875 248.20715332 C-117.36613279 248.20214692 -115.90804856 248.19661696 -114.44996643 248.19059753 C-110.57490317 248.17851427 -106.70001098 248.18175605 -102.82494354 248.19048309 C-100.42611808 248.19544195 -98.02730909 248.19696957 -95.628479 248.19793701 C-70.30384008 248.21974754 -45.28768471 248.99192229 -20.15625 252.36340332 C-19.20057129 252.48344727 -18.24489258 252.60349121 -17.26025391 252.72717285 C-15.59381362 252.94359767 -13.93067663 253.18936109 -12.27490234 253.47619629 C-9.94142828 253.86730439 -9.94142828 253.86730439 -6.6171875 253.50793457 C-4.07372343 251.07041585 -4.07372343 251.07041585 -2.77978516 249.11804199 C3.742665 240.08495532 16.95543857 235.0205548 27.3828125 232.50793457 C31.0128125 232.50793457 34.6428125 232.50793457 38.3828125 232.50793457 C38.3828125 190.26793457 38.3828125 148.02793457 38.3828125 104.50793457 C35.4128125 104.01293457 35.4128125 104.01293457 32.3828125 103.50793457 C30.43170032 101.15485 28.97520565 99.05359736 27.4453125 96.44543457 C26.98785645 95.70172607 26.53040039 94.95801758 26.05908203 94.19177246 C25.04434006 92.54118144 24.03725265 90.88586764 23.03662109 89.22668457 C21.27460065 86.33004158 19.46895186 83.46438755 17.65234375 80.60168457 C13.84753851 74.59979222 10.09527855 68.56736192 6.3828125 62.50793457 C5.89941406 61.71902832 5.41601562 60.93012207 4.91796875 60.11730957 C-0.68295938 50.87660915 -4.68485591 41.93126452 -7.6171875 31.50793457 C-7.86210937 30.7473877 -8.10703125 29.98684082 -8.359375 29.20324707 C-9.84557221 23.97101853 -9.88267168 18.60017363 -9.9921875 13.19543457 C-10.01837158 12.40548096 -10.04455566 11.61552734 -10.0715332 10.80163574 C-10.0737085 10.04858154 -10.07588379 9.29552734 -10.078125 8.51965332 C-10.08634277 7.84378174 -10.09456055 7.16791016 -10.10302734 6.47155762 C-8.79901327 1.20111281 -4.92618986 0.00747383 0 0 Z M7.3828125 16.50793457 C9.71569072 37.50383854 20.95536113 54.33795852 32.52929688 71.54089355 C33.92434898 73.77404268 35.05722567 75.86376267 36.17382812 78.22692871 C39.4914752 84.95099657 39.4914752 84.95099657 45.29379272 89.38717651 C50.79737312 90.9513287 56.32796871 90.96163363 62.0078125 90.82043457 C62.86519012 90.8152179 63.72256775 90.81000122 64.60592651 90.80462646 C71.61967573 90.68520635 78.40337127 90.44401793 84.40576172 86.5435791 C89.35237636 81.4076991 92.17063229 75.26545744 94.92919922 68.75891113 C97.2969965 63.46338063 100.44203517 58.67019949 103.5078125 53.75793457 C108.75473698 45.05165068 113.87982412 36.05005408 116.1953125 26.07043457 C116.42863281 25.10234863 116.66195312 24.1342627 116.90234375 23.13684082 C117.50266967 20.29753933 117.50266967 20.29753933 117.3828125 16.50793457 C81.0828125 16.50793457 44.7828125 16.50793457 7.3828125 16.50793457 Z M54.3828125 104.50793457 C54.3828125 146.74793457 54.3828125 188.98793457 54.3828125 232.50793457 C59.6628125 232.50793457 64.9428125 232.50793457 70.3828125 232.50793457 C70.3828125 190.26793457 70.3828125 148.02793457 70.3828125 104.50793457 C65.1028125 104.50793457 59.8228125 104.50793457 54.3828125 104.50793457 Z M206.00390625 185.97961426 C203.53389544 188.30826903 200.97478115 190.52465 198.40234375 192.73840332 C195.68795057 195.11677877 193.03708863 197.56302362 190.3828125 200.00793457 C186.47306895 203.60813912 182.52414579 207.15211239 178.5078125 210.63293457 C175.76457832 213.05343532 173.07396682 215.52994099 170.3828125 218.00793457 C166.47299655 221.60806213 162.52414782 225.15211062 158.5078125 228.63293457 C155.76457832 231.05343532 153.07396682 233.52994099 150.3828125 236.00793457 C146.47299655 239.60806213 142.52414782 243.15211062 138.5078125 246.63293457 C135.76457832 249.05343532 133.07396682 251.52994099 130.3828125 254.00793457 C127.08252327 257.04681475 123.77331967 260.06949502 120.3828125 263.00793457 C116.93840148 265.99742338 113.56035774 269.0547994 110.1953125 272.13293457 C109.69580078 272.58861816 109.19628906 273.04430176 108.68164062 273.51379395 C105.49731434 276.43523311 102.41803593 279.43386916 99.3828125 282.50793457 C102.08920004 283.04137621 104.79708454 283.55994386 107.5078125 284.07043457 C108.26835937 284.22189941 109.02890625 284.37336426 109.8125 284.52941895 C110.56015625 284.66799316 111.3078125 284.80656738 112.078125 284.94934082 C112.75891113 285.08026123 113.43969727 285.21118164 114.14111328 285.34606934 C119.73070848 285.74967439 123.60422267 284.089737 128.28515625 281.18371582 C128.8354953 280.84594116 129.38583435 280.5081665 129.95285034 280.16015625 C131.74767454 279.05581336 133.53382863 277.93820913 135.3203125 276.82043457 C136.57776371 276.04365611 137.83582864 275.26787034 139.09448242 274.49304199 C141.64681563 272.92040459 144.19616681 271.34310477 146.74316406 269.76184082 C151.87289712 266.58021423 157.03466147 263.45156553 162.1953125 260.32043457 C164.07313653 259.17756657 165.95074178 258.03433904 167.828125 256.89074707 C168.74625977 256.33161621 169.66439453 255.77248535 170.61035156 255.19641113 C171.52526367 254.63921387 172.44017578 254.0820166 173.3828125 253.50793457 C185.11315608 246.36395287 196.84615945 239.22440856 208.58712769 232.09790039 C213.85266884 228.90176049 219.11774585 225.70485605 224.3828125 222.50793457 C225.39375977 221.89417969 226.40470703 221.2804248 227.44628906 220.64807129 C239.65313418 213.23516484 251.83809589 205.78778742 263.99072266 198.28625488 C268.96456812 195.21743065 273.94412074 192.16104685 278.95703125 189.15637207 C280.21616333 188.39876587 280.21616333 188.39876587 281.50073242 187.62585449 C283.04055055 186.7012061 284.58348972 185.78172673 286.13012695 184.86853027 C289.31438466 182.95247171 291.29105962 181.64556388 293.3828125 178.50793457 C293.89912351 174.52496392 293.93708706 172.35359178 291.7109375 168.95715332 C287.22589627 164.78369441 280.49384265 164.58952482 274.6953125 163.69543457 C273.39416504 163.48604248 272.09301758 163.27665039 270.75244141 163.06091309 C241.49995851 158.60282163 227.086467 165.9058427 206.00390625 185.97961426 Z M8.91015625 261.52355957 C2.59413421 269.72954217 -0.74127607 277.04726779 -0.6171875 287.50793457 C1.23519531 287.10961426 1.23519531 287.10961426 3.125 286.70324707 C4.83584595 286.34603748 6.54678895 285.9892925 8.2578125 285.63293457 C9.06089844 285.45891113 9.86398438 285.2848877 10.69140625 285.10559082 C22.71885403 282.6266512 34.82576546 281.35562438 47.1015625 281.41027832 C47.90675323 281.410802 48.71194397 281.41132568 49.54153442 281.41186523 C52.82264005 281.4176038 56.10152595 281.42703968 59.38183594 281.50427246 C71.21572102 281.91821448 71.21572102 281.91821448 81.22265625 276.23449707 C82.64191757 274.68822669 84.0338685 273.11591618 85.3828125 271.50793457 C91.69598136 265.81828856 98.02314644 260.14560956 104.3828125 254.50793457 C100.28437469 249.52054228 93.46488826 249.17678546 87.3828125 248.50793457 C80.27911406 248.07062175 73.16482211 248.11703771 66.05078125 248.17175293 C62.75756439 248.19543635 59.46515613 248.19228294 56.171875 248.18566895 C54.04166193 248.191245 51.9114522 248.19835442 49.78125 248.20715332 C48.815289 248.20624191 47.849328 248.20533051 46.85409546 248.20439148 C32.85879351 248.34708069 18.74842637 250.6509481 8.91015625 261.52355957 Z M-159.6171875 282.50793457 C-160.47957031 283.26461426 -161.34195313 284.02129395 -162.23046875 284.80090332 C-167.52162829 289.38369168 -167.52162829 289.38369168 -169.4296875 295.82043457 C-168.55056166 299.81031337 -167.94008943 301.20036379 -164.6171875 303.50793457 C-161.30045078 304.61299024 -158.1863801 304.63124088 -154.70733643 304.62818909 C-153.49861374 304.62956375 -152.28989105 304.63093842 -151.04454041 304.63235474 C-149.70840429 304.62881587 -148.37226843 304.62518106 -147.03613281 304.62145996 C-145.62669375 304.62117783 -144.21725453 304.62133632 -142.80781555 304.62190247 C-138.98378133 304.62218945 -135.15977846 304.6163087 -131.33575153 304.60932851 C-127.33856172 304.60307851 -123.34137119 304.60248987 -119.34417725 304.6013031 C-111.77591131 304.59819465 -104.20765982 304.5899878 -96.63940024 304.57995361 C-88.02278659 304.5687774 -79.40617226 304.56327822 -70.78955317 304.55825818 C-53.06542309 304.54780479 -35.34130646 304.53021474 -17.6171875 304.50793457 C-17.57960327 303.33605591 -17.57960327 303.33605591 -17.54125977 302.14050293 C-17.42468547 298.5753384 -17.30223885 295.01039844 -17.1796875 291.44543457 C-17.14037109 290.21631348 -17.10105469 288.98719238 -17.06054688 287.7208252 C-16.85712892 281.91558963 -16.62942648 276.23261387 -15.6171875 270.50793457 C-25.15641137 268.71561277 -34.70532149 267.73124848 -44.3671875 266.94543457 C-45.14664734 266.88101166 -45.92610718 266.81658875 -46.72918701 266.75021362 C-63.01921197 265.41844569 -79.27370691 264.76463845 -95.6171875 264.50793457 C-96.83277344 264.48602051 -98.04835938 264.46410645 -99.30078125 264.44152832 C-123.28187345 264.05095679 -141.70215975 264.65292366 -159.6171875 282.50793457 Z M-0.6171875 305.50793457 C-1.58936018 318.14617947 4.12022552 328.07849766 12.0390625 337.47277832 C21.26554119 347.41735559 33.1035869 351.59160922 46.3828125 352.50793457 C50.92905391 352.65038957 55.47157068 352.69376467 60.01953125 352.6932373 C62.11479267 352.69541583 64.20951923 352.71360874 66.3046875 352.73254395 C84.47907574 352.80929525 99.18424916 350.3830737 112.546875 337.40637207 C119.87589018 329.63816496 125.45042428 319.99332511 125.5078125 309.07043457 C125.4665625 307.89480957 125.4253125 306.71918457 125.3828125 305.50793457 C91.08138628 292.48793271 32.97022674 288.71422745 -0.6171875 305.50793457 Z M141.3828125 316.50793457 C141.05667969 317.5211377 140.73054688 318.53434082 140.39453125 319.57824707 C139.95337014 320.92988961 139.51195008 322.28144764 139.0703125 323.63293457 C138.85697266 324.29809082 138.64363281 324.96324707 138.42382812 325.64855957 C137.36129432 328.88373712 136.26538253 331.7279501 134.65234375 334.75012207 C133.20713026 337.30203364 133.20713026 337.30203364 133.53173828 339.47497559 C134.69704626 342.25854401 136.2219516 343.1380302 138.73046875 344.79309082 C139.63812988 345.40096436 140.54579102 346.00883789 141.48095703 346.63513184 C142.94831299 347.59310669 142.94831299 347.59310669 144.4453125 348.57043457 C146.46522442 349.91361229 148.48475312 351.25736647 150.50390625 352.60168457 C151.50405762 353.26297363 152.50420898 353.9242627 153.53466797 354.60559082 C156.74192419 356.74779384 159.89450988 358.95849207 163.04296875 361.18566895 C184.31927659 376.18060161 201.58634263 377.4604518 226.8203125 373.25793457 C228.08246582 373.0535376 229.34461914 372.84914063 230.64501953 372.6385498 C231.83595215 372.42529053 233.02688477 372.21203125 234.25390625 371.99230957 C235.31536865 371.80378418 236.37683105 371.61525879 237.47045898 371.42102051 C240.87228305 370.35447495 242.85095009 369.00453268 245.3828125 366.50793457 C246.21614583 363.00793457 246.21614583 363.00793457 245.3828125 359.50793457 C241.26643228 355.34007211 236.18573205 353.56375339 230.83496094 351.47375488 C229.87998718 351.09278152 228.92501343 350.71180817 227.94110107 350.31929016 C224.79470862 349.06652767 221.64357792 347.82618968 218.4921875 346.58605957 C216.30426386 345.71809544 214.11662517 344.84941271 211.92926025 343.9800415 C207.35169776 342.1626658 202.77198321 340.35086956 198.19042969 338.5435791 C192.30366976 336.22142065 186.42052638 333.89027239 180.53872299 331.55559158 C174.94094926 329.33387487 169.34174482 327.11577651 163.7421875 324.89855957 C162.66728813 324.4727787 161.59238876 324.04699783 160.48491669 323.60831451 C157.46174512 322.41175578 154.43760513 321.21768373 151.41308594 320.02453613 C150.50816406 319.66614151 149.60324219 319.30774689 148.67089844 318.93849182 C147.85216248 318.61612045 147.03342651 318.29374908 146.18988037 317.96160889 C145.47461056 317.67920475 144.75934074 317.39680061 144.02239609 317.10583878 C142.51709893 316.4508347 142.51709893 316.4508347 141.3828125 316.50793457 Z M1.0078125 467.13293457 C-1.10425256 470.21979889 -1.22913895 471.83622587 -0.6171875 475.50793457 C0.8828125 478.00793457 0.8828125 478.00793457 3.3828125 479.50793457 C7.0545212 480.11988602 8.67094818 479.99499963 11.7578125 477.88293457 C13.86987756 474.79607025 13.99476395 473.17964327 13.3828125 469.50793457 C11.8828125 467.00793457 11.8828125 467.00793457 9.3828125 465.50793457 C5.7111038 464.89598312 4.09467682 465.02086951 1.0078125 467.13293457 Z " fill="#000000" transform="translate(193.6171875,7.4920654296875)"/>
</svg>
