<?xml version="1.0" encoding="UTF-8"?>
<svg version="1.1" xmlns="http://www.w3.org/2000/svg" width="512" height="512">
<path d="M0 0 C2.91728408 2.12718631 4.57614715 3.57849414 5.61790466 7.0723114 C6.1660959 11.27265901 6.13028507 15.42398102 6.11352539 19.65551758 C6.11367142 20.6218512 6.11381744 21.58818481 6.1139679 22.58380127 C6.11327248 25.77073427 6.1054974 28.95760848 6.09765625 32.14453125 C6.09579075 34.35698922 6.09436747 36.5694476 6.09336853 38.78190613 C6.08955372 44.59993636 6.07973225 50.41794156 6.06866455 56.23596191 C6.05842818 62.17488262 6.05386614 68.11380738 6.04882812 74.05273438 C6.03810907 85.7018339 6.02104506 97.35091487 6 109 C7.02262939 108.97462158 8.04525879 108.94924316 9.09887695 108.9230957 C10.45783627 108.90256762 11.81680509 108.88266242 13.17578125 108.86328125 C13.84774536 108.84495239 14.51970947 108.82662354 15.21203613 108.80773926 C21.27360643 108.74299865 25.35073509 110.18844048 30 114 C34.09345502 118.09345502 35.81230826 122.38805753 36.22705078 128.15966797 C36.21134033 129.80926514 36.21134033 129.80926514 36.1953125 131.4921875 C36.18564453 133.29042969 36.18564453 133.29042969 36.17578125 135.125 C36.15064453 136.98125 36.15064453 136.98125 36.125 138.875 C36.11597656 140.13570312 36.10695313 141.39640625 36.09765625 142.6953125 C36.07415808 145.7970704 36.04130334 148.89843652 36 152 C37.69382812 152.17015625 37.69382812 152.17015625 39.421875 152.34375 C79.97208736 157.47037913 119.94136031 186.6368605 144.76171875 218.08203125 C145.50035156 219.04496094 146.23898437 220.00789062 147 221 C147.42490723 221.54317871 147.84981445 222.08635742 148.28759766 222.64599609 C155.9846519 232.52005093 162.26628804 242.87968988 168 254 C168.32983887 254.63373535 168.65967773 255.2674707 168.99951172 255.92041016 C182.0603824 281.33892639 188.84462227 310.56548481 189.5 339.0625 C189.53061523 339.78163574 189.56123047 340.50077148 189.59277344 341.24169922 C189.59485787 345.60336459 188.64125106 348.4717405 185.73520851 351.74905777 C182.13174358 354.3468588 177.78985063 353.77404868 173.51831055 353.68115234 C172.46419479 353.6820285 171.41007904 353.68290466 170.32402039 353.68380737 C166.84416276 353.67963139 163.3662391 353.63297509 159.88671875 353.5859375 C157.47248894 353.5747455 155.0582455 353.56620534 152.64399719 353.56021118 C146.29294136 353.53731373 139.94271021 353.47838062 133.59197998 353.4119873 C127.1102616 353.35058571 120.62840982 353.32320058 114.14648438 353.29296875 C101.43063795 353.22863993 88.71536286 353.12740279 76 353 C75.86813293 353.82161118 75.73626587 354.64322235 75.60040283 355.48973083 C75.42450623 356.56876175 75.24860962 357.64779266 75.06738281 358.75952148 C74.89426575 359.82863266 74.72114868 360.89774384 74.54278564 361.99925232 C71.06177511 381.24374484 59.08087571 398.99076273 43.4375 410.5 C23.78729266 423.70897623 1.49839383 428.72723283 -21.9375 424.9375 C-42.50296094 420.86385466 -61.56564788 409.52576692 -73.51782227 392.0925293 C-81.00041044 380.70543884 -88 366.91014315 -88 353 C-88.54684039 353.00368717 -89.09368078 353.00737434 -89.65709209 353.01117325 C-102.96938234 353.09955106 -116.28162111 353.16546708 -129.59414196 353.20724869 C-136.03202932 353.22813273 -142.46970511 353.25646597 -148.9074707 353.30175781 C-155.11904801 353.34518539 -161.33042167 353.36913095 -167.54213905 353.37950897 C-169.91325398 353.38690581 -172.28435763 353.40134989 -174.65538597 353.42292023 C-177.97387242 353.45191223 -181.29151492 353.45595763 -184.61010742 353.45410156 C-185.59266006 353.46848267 -186.57521271 353.48286377 -187.58753967 353.49768066 C-191.92394138 353.47139682 -194.32839559 353.41411527 -198.08686829 351.09661865 C-202.90677669 345.81443668 -201.25730979 337.76639923 -201 331 C-199.06122976 294.79385976 -186.92314962 259.56114717 -166 230 C-165.38970947 229.1352002 -165.38970947 229.1352002 -164.76708984 228.25292969 C-157.98930706 218.78123488 -150.09705879 210.34514186 -142 202 C-141.43990234 201.41436279 -140.87980469 200.82872559 -140.30273438 200.2253418 C-136.11500939 195.92175326 -131.66408848 192.17904203 -126.875 188.5625 C-126.12637695 187.99611816 -125.37775391 187.42973633 -124.60644531 186.84619141 C-118.30584548 182.13487146 -111.86627493 177.84717527 -105 174 C-104.27425781 173.58540527 -103.54851562 173.17081055 -102.80078125 172.74365234 C-86.16506123 163.31651818 -63.60717087 151 -44 151 C-44.02618408 150.22922119 -44.05236816 149.45844238 -44.0793457 148.66430664 C-44.1840663 145.13058317 -44.24856509 141.59718728 -44.3125 138.0625 C-44.3753418 136.24395508 -44.3753418 136.24395508 -44.43945312 134.38867188 C-44.5546119 125.88995427 -43.47332934 119.65510899 -37.44995117 113.38696289 C-32.44044207 108.97539551 -28.19513541 108.8650334 -21.8125 108.9375 C-21.06291016 108.94201172 -20.31332031 108.94652344 -19.54101562 108.95117188 C-17.69397617 108.96293646 -15.84697787 108.98087135 -14 109 C-14.03029297 108.18402344 -14.06058594 107.36804688 -14.09179688 106.52734375 C-14.8604475 84.79226914 -15.15694546 63.05340087 -15.23217773 41.3059082 C-15.24255401 38.39306442 -15.26000324 35.48039426 -15.28344727 32.56762695 C-15.31606484 28.42913265 -15.32336156 24.29096469 -15.328125 20.15234375 C-15.34658478 18.27179543 -15.34658478 18.27179543 -15.36541748 16.35325623 C-15.36245667 15.19374954 -15.35949585 14.03424286 -15.35644531 12.83959961 C-15.36191376 11.32274818 -15.36191376 11.32274818 -15.36749268 9.7752533 C-14.93312969 6.49500474 -13.95400577 4.65195961 -12 2 C-7.98401175 -0.6773255 -4.71993589 -0.81149775 0 0 Z M-24 130 C-24 135.94 -24 141.88 -24 148 C-11.13 148 1.74 148 15 148 C15 142.06 15 136.12 15 130 C2.13 130 -10.74 130 -24 130 Z M-46 173 C-47.31854068 173.29378289 -48.63752749 173.58557343 -49.95703125 173.875 C-76.16310537 180.12650224 -101.10229536 193.566309 -120.77734375 211.9296875 C-122.78126734 213.79625956 -124.83752915 215.55616074 -126.9375 217.3125 C-158.47009006 244.97489289 -175.98387088 286.88752031 -180 328 C-180 329.32 -180 330.64 -180 332 C-64.83 332 50.34 332 169 332 C166.98534198 314.47622168 166.98534198 314.47622168 163.375 297.375 C163.12339111 296.44099365 162.87178223 295.5069873 162.61254883 294.54467773 C154.96427892 267.48069255 140.01426932 239.98063035 119 221 C114 216 114 216 112.671875 214.53125 C103.30014241 204.49686965 90.84841321 196.72889978 79 190 C78.14196777 189.51152588 78.14196777 189.51152588 77.26660156 189.01318359 C59.30403721 178.96375111 39.25628012 173.18517091 19 170 C17.9186377 169.8256543 16.83727539 169.65130859 15.72314453 169.47167969 C11.87452241 168.98410343 8.08755889 168.80472412 4.21484375 168.76171875 C3.48489197 168.75201553 2.75494019 168.74231232 2.00286865 168.73231506 C-0.35231072 168.70745619 -2.70720261 168.69479352 -5.0625 168.6875 C-5.86690521 168.68488159 -6.67131042 168.68226318 -7.50009155 168.67956543 C-20.7271556 168.67495561 -33.1285541 169.80283446 -46 173 Z M-66 353 C-62.92554211 369.90951842 -55.23890989 383.84969138 -41 394 C-25.41576782 403.53383212 -8.98403837 407.69813808 9.0625 403.375 C22.28935655 399.87086423 31.50778133 393.5912433 41 384 C41.60714844 383.41476562 42.21429688 382.82953125 42.83984375 382.2265625 C50.52762726 374.19211501 53.87565349 363.62173254 56 353 C15.74 353 -24.52 353 -66 353 Z " fill="#000000" transform="translate(262,0)"/>
<path d="M0 0 C2.8100346 1.79363911 4.50940468 3.01880935 6 6 C6.67676744 11.31745845 6.08976571 14.31772492 3.43359375 18.98046875 C2.61532104 20.42933472 2.61532104 20.42933472 1.78051758 21.9074707 C0.89916138 23.43827271 0.89916138 23.43827271 0 25 C-0.58434814 26.02891357 -1.16869629 27.05782715 -1.77075195 28.11791992 C-6.13138009 35.77350554 -10.56033523 43.39003764 -15 51 C-15.4635791 51.7955127 -15.9271582 52.59102539 -16.40478516 53.41064453 C-17.48839863 55.2595737 -18.58345327 57.10072271 -19.6875 58.9375 C-20.52861328 60.34322266 -20.52861328 60.34322266 -21.38671875 61.77734375 C-23.08087389 64.11142189 -24.52761607 65.52416238 -27 67 C-31.61995409 67.59612311 -34.61261258 67.73012864 -38.4375 64.9375 C-41.53465239 61.3871058 -41.80440507 59.65888211 -42 55 C-40.84985352 51.73730469 -40.84985352 51.73730469 -39.06640625 48.421875 C-38.7481337 47.8217157 -38.42986115 47.2215564 -38.10194397 46.60321045 C-37.09201095 44.72099068 -36.05260605 42.85865572 -35 41 C-34.67022156 40.41645752 -34.34044312 39.83291504 -34.00067139 39.23168945 C-31.70484897 35.20223461 -29.32910442 31.22311258 -26.9375 27.25 C-26.24889267 26.09792886 -25.56074104 24.94558521 -24.87304688 23.79296875 C-23.54282406 21.5669859 -22.20960831 19.34278817 -20.87304688 17.12060547 C-19.6589333 15.09782136 -18.45147075 13.07102434 -17.25195312 11.03955078 C-16.46014648 9.70126221 -16.46014648 9.70126221 -15.65234375 8.3359375 C-15.194646 7.55782715 -14.73694824 6.7797168 -14.26538086 5.97802734 C-10.66615948 0.35177004 -6.41866496 -1.32263399 0 0 Z " fill="#000000" transform="translate(208,424)"/>
<path d="M0 0 C4.30501821 1.83435103 8.20913241 4.23529346 12.1875 6.6875 C13.90396306 7.71521783 15.62043305 8.74292456 17.33752441 9.76959229 C19.08510611 10.81825136 20.82719291 11.87561479 22.56884766 12.93408203 C25.83414603 14.91092939 29.13584622 16.81951486 32.44921875 18.71484375 C33.95029175 19.57879761 33.95029175 19.57879761 35.48168945 20.46020508 C37.36652944 21.54473161 39.25425891 22.62425665 41.14526367 23.69799805 C45.58773263 26.29060078 49.26461377 28.48848627 52 33 C52.47074539 36.76596313 52.30423825 39.21255982 50.9375 42.75 C48.36656247 45.73560488 45.87340253 47.38678263 42 48 C33.9254613 46.74949988 26.82777457 41.60573655 20 37.4375 C18.80183215 36.71363969 17.6031787 35.99058257 16.40405273 35.26831055 C14.61227638 34.18894968 12.82088986 33.10900824 11.03160095 32.02552795 C7.57872844 29.9370816 4.10496036 27.89400721 0.59765625 25.8984375 C-0.57120117 25.23050171 -0.57120117 25.23050171 -1.76367188 24.54907227 C-3.16309 23.75301961 -4.56646847 22.96386875 -5.97460938 22.18334961 C-9.85420427 19.95766055 -12.57599104 17.78193044 -15 14 C-15.7102782 11.24244933 -15.57362511 8.78376894 -15 6 C-11.12737874 -0.06710665 -7.0136903 -1.16533986 0 0 Z " fill="#000000" transform="translate(353,386)"/>
<path d="M0 0 C6.51341289 3.69749468 9.73130037 10.11081913 13.125 16.5 C14.24480787 18.5547979 15.36727964 20.60814592 16.4921875 22.66015625 C17.35021973 24.23047607 17.35021973 24.23047607 18.22558594 25.83251953 C19.98448702 28.97230801 21.81857893 32.05048032 23.6953125 35.12109375 C24.29069824 36.09820312 24.88608398 37.0753125 25.49951172 38.08203125 C26.63927073 39.94125321 27.78886974 41.7944902 28.94970703 43.640625 C32.14077239 48.88642998 33.88419647 52.81472922 34 59 C32.45123978 62.66811631 30.53784843 65.13280222 27 67 C23.68251965 67.56334572 21.29737733 67.77275687 18.32397461 66.00170898 C13.01287288 61.61522143 10.07863708 56.53186375 6.875 50.5 C5.75526995 48.44385853 4.6327962 46.38920923 3.5078125 44.3359375 C2.93579102 43.28889648 2.36376953 42.24185547 1.77441406 41.16308594 C0.01886595 38.0336306 -1.81554843 34.97029105 -3.6953125 31.9140625 C-4.29069824 30.94146484 -4.88608398 29.96886719 -5.49951172 28.96679688 C-6.63745201 27.11942938 -7.78693611 25.27910583 -8.94970703 23.44726562 C-12.17168302 18.17073994 -14.51929296 13.32794438 -14 7 C-10.68204626 0.59291692 -7.1961473 -1.32744465 0 0 Z " fill="#000000" transform="translate(313,424)"/>
<path d="M0 0 C3.14817984 1.45760129 5.35286691 3.78662546 7 6.875 C7 10.31252071 6.28862161 12.8064595 5 16 C-0.03974918 20.85917185 -6.01365612 24.10588019 -12.0625 27.5625 C-14.21097429 28.79550882 -16.35941104 30.02858304 -18.5078125 31.26171875 C-19.5896582 31.88095215 -20.67150391 32.50018555 -21.78613281 33.13818359 C-24.8570364 34.91718015 -27.89634652 36.73988623 -30.9296875 38.58203125 C-31.859021 39.13753662 -32.78835449 39.69304199 -33.74584961 40.26538086 C-35.49260348 41.3099476 -37.23103552 42.3686069 -38.95922852 43.44360352 C-44.24040948 46.56077794 -48.82311041 48.24367956 -55 47 C-58.38400069 44.60299951 -59.68027081 43.00181812 -60.9375 39.0625 C-61.01036923 35.49190754 -60.4192659 33.27661276 -59 30 C-56.80932617 28.12451172 -56.80932617 28.12451172 -54.10546875 26.5546875 C-52.62119385 25.67441895 -52.62119385 25.67441895 -51.10693359 24.77636719 C-50.08164551 24.19016602 -49.05635742 23.60396484 -48 23 C-47.04561035 22.4318457 -46.0912207 21.86369141 -45.10791016 21.27832031 C-39.07458692 17.68727647 -32.98235892 14.19615714 -26.90087891 10.6875 C-24.30836652 9.17938305 -21.73516429 7.64441233 -19.16796875 6.09375 C-17.7787488 5.27065952 -16.38943403 4.44772905 -15 3.625 C-14.39712158 3.25004395 -13.79424316 2.87508789 -13.1730957 2.48876953 C-8.50822307 -0.23180466 -5.25064998 -0.51040445 0 0 Z " fill="#000000" transform="translate(169,386)"/>
<path d="M0 0 C2.55395319 1.95803078 2.95557293 2.86671878 4 6 C4.10325517 7.85443107 4.14852211 9.71231941 4.16113281 11.56958008 C4.17074036 12.71119095 4.1803479 13.85280182 4.19024658 15.02900696 C4.19449646 16.26337997 4.19874634 17.49775299 4.203125 18.76953125 C4.20882507 20.03842697 4.21452515 21.30732269 4.22039795 22.6146698 C4.22985201 25.30215033 4.23674671 27.98951909 4.24023438 30.67700195 C4.24571164 34.11013066 4.26972702 37.54286127 4.29820633 40.97586536 C4.32138392 44.26122361 4.32328593 47.5466027 4.328125 50.83203125 C4.3404718 52.06033157 4.3528186 53.2886319 4.36553955 54.55415344 C4.33728424 65.3914392 4.33728424 65.3914392 1 70 C-3.01149768 72.67433178 -6.28440661 72.81902411 -11 72 C-14.5679113 69.32406652 -16.22906648 67.33468337 -17 63 C-17.09997741 61.20469735 -17.14816971 59.40619185 -17.16113281 57.6081543 C-17.17074036 56.52990891 -17.1803479 55.45166351 -17.19024658 54.34074402 C-17.19449646 53.18029068 -17.19874634 52.01983734 -17.203125 50.82421875 C-17.20882507 49.62569778 -17.21452515 48.42717682 -17.22039795 47.19233704 C-17.229843 44.65630983 -17.23637996 42.12027038 -17.24023438 39.58422852 C-17.24993651 35.71283461 -17.28096417 31.84197238 -17.3125 27.97070312 C-17.31903065 25.50521148 -17.32428088 23.03971605 -17.328125 20.57421875 C-17.3404718 19.4198381 -17.3528186 18.26545746 -17.36553955 17.07609558 C-17.348696 10.97141096 -17.14437785 6.3128671 -14 1 C-8.79924085 -2.30048177 -5.63111566 -2.38239509 0 0 Z " fill="#000000" transform="translate(263,440)"/>
</svg>
