<?xml version="1.0" encoding="UTF-8"?>
<svg version="1.1" xmlns="http://www.w3.org/2000/svg" width="512" height="512">
<path d="M0 0 C1.21562261 -0.00525911 1.21562261 -0.00525911 2.45580325 -0.01062447 C5.18266079 -0.01995904 7.90930574 -0.01500985 10.63617229 -0.01015663 C12.60644238 -0.01389185 14.57671098 -0.01849286 16.54697722 -0.02388728 C21.97020477 -0.0361485 27.39337077 -0.03585314 32.81660903 -0.03349853 C38.66200093 -0.03309115 44.50737289 -0.04412193 50.35275555 -0.05361366 C61.80830026 -0.07024166 73.2638244 -0.07572402 84.71938018 -0.07683842 C94.02888347 -0.07778802 103.33837996 -0.08189393 112.64788151 -0.08823967 C115.32686652 -0.09003474 118.00585154 -0.09181436 120.68483657 -0.09358943 C121.35082624 -0.09403152 122.01681592 -0.09447362 122.7029871 -0.09492911 C141.43817291 -0.10723892 160.17335641 -0.1151301 178.90854645 -0.11424255 C179.61502182 -0.1142114 180.3214972 -0.11418024 181.04938092 -0.11414814 C184.63015365 -0.11398192 188.21092637 -0.11378384 191.79169909 -0.11357872 C192.50286297 -0.11353883 193.21402685 -0.11349894 193.94674116 -0.11345784 C195.38488813 -0.11337697 196.8230351 -0.11329337 198.26118208 -0.11320706 C220.63731869 -0.1119815 243.0133947 -0.12699505 265.38951397 -0.15435219 C290.52464772 -0.18506979 315.65974164 -0.20228488 340.79489535 -0.20042574 C354.10506989 -0.19968441 367.41518031 -0.20528478 380.72533894 -0.22678185 C392.05716278 -0.24496611 403.38888728 -0.24936363 414.72071937 -0.235763 C420.50395073 -0.22921951 426.28699136 -0.22916605 432.07020473 -0.2464695 C437.36336733 -0.26214404 442.65618708 -0.25939406 447.94934102 -0.24190123 C449.8652043 -0.23881894 451.7810928 -0.24250973 453.69692633 -0.25362138 C456.30052816 -0.26772306 458.9029242 -0.25717185 461.50648499 -0.24050903 C462.25091676 -0.25044539 462.99534853 -0.26038175 463.76233885 -0.27061921 C470.20254594 -0.18343445 475.33607725 1.97367787 480.1841917 6.22211266 C480.72301983 6.87308922 481.26184795 7.52406578 481.8170042 8.19476891 C482.37130108 8.84316734 482.92559795 9.49156578 483.4966917 10.15961266 C486.75580555 14.88973194 487.19939804 18.95617175 487.23253155 24.64618492 C487.24260738 25.73491905 487.24260738 25.73491905 487.25288677 26.84564781 C487.27181658 29.23422734 487.27578774 31.62252539 487.2779417 34.01117516 C487.28437085 35.67596616 487.2910993 37.34075603 487.29811382 39.00554466 C487.31007235 42.48978866 487.31379589 45.97393358 487.31260967 49.45819664 C487.31240604 53.9228747 487.33975991 58.3869194 487.37415409 62.85144711 C487.39638306 66.28726181 487.40044853 69.72292277 487.39939022 73.15880203 C487.40175023 74.80505058 487.41059628 76.45130311 487.42605495 78.09748077 C487.44564412 80.39802347 487.43990715 82.69718263 487.42784405 84.99774742 C487.43069408 86.30615089 487.43354412 87.61455437 487.43648052 88.96260643 C486.86259216 92.78638601 485.98839032 93.96010727 482.9420042 96.25726891 C480.9420042 96.78851891 480.9420042 96.78851891 478.9420042 96.75726891 C477.9520042 96.77273766 477.9520042 96.77273766 476.9420042 96.78851891 C473.98418663 96.00284861 472.84555385 94.63314973 470.9420042 92.25726891 C470.43648052 89.2283535 470.43648052 89.2283535 470.42784405 85.64032555 C470.41715641 84.65663239 470.41715641 84.65663239 470.40625286 83.65306664 C470.38699528 81.49087826 470.39524698 79.32967065 470.4029417 77.16742516 C470.39303291 75.66052894 470.38109096 74.15364484 470.36720562 72.64678001 C470.33484176 68.68174657 470.32445191 64.71698929 470.32036114 60.75183678 C470.3116065 54.40917898 470.27603036 48.06674821 470.22818661 41.7242775 C470.21562597 39.51237412 470.21635752 37.30075886 470.21846294 35.08882713 C470.21187983 33.72708479 470.20487301 32.36534441 470.1973753 31.0036068 C470.19611645 29.81876198 470.1948576 28.63391716 470.1935606 27.41316795 C469.93578439 24.17923826 469.5877591 22.0540838 467.9420042 19.25726891 C463.75945315 17.01253164 459.72908244 16.97585221 455.09427166 17.00558662 C454.30659503 17.00267974 453.5189184 16.99977286 452.70737278 16.99677789 C450.05788562 16.98945688 447.40862851 16.99643105 444.75914288 17.00330162 C442.84448249 17.00099802 440.92982298 16.99782218 439.01516533 16.99384713 C433.74576096 16.98547665 428.47642877 16.98963463 423.2070241 16.99581957 C417.52733997 17.00033385 411.8476685 16.9933654 406.16798687 16.98785973 C395.03830024 16.97895312 383.90864054 16.98089338 372.77895284 16.98668501 C363.73591945 16.99119651 354.69289362 16.99181662 345.64985943 16.98963737 C344.36421288 16.98933091 343.07856633 16.98902444 341.75396079 16.98870869 C339.14242911 16.98806926 336.53089744 16.98742083 333.91936576 16.98676351 C310.11347272 16.98121928 286.30759602 16.98697489 262.50170557 16.9974487 C240.76337276 17.00694012 219.02506338 17.00609087 197.28673077 16.99652672 C172.87127811 16.98582066 148.4558414 16.98160586 124.0403862 16.98775125 C121.43830713 16.98838836 118.83622805 16.9890171 116.23414898 16.98963737 C114.31359598 16.9901002 114.31359598 16.9901002 112.35424393 16.99057238 C103.31907156 16.9923013 94.28390747 16.98937996 85.24873638 16.98467827 C74.24220097 16.97907678 63.2356941 16.98057044 52.22916198 16.99123976 C46.6104025 16.99650634 40.99169064 16.99853644 35.37293148 16.99194145 C30.2335947 16.98600028 25.09434989 16.98922673 19.9550215 16.99989656 C18.09170359 17.00213838 16.22837797 17.00097687 14.36506498 16.99614498 C11.83984381 16.99009685 9.31494107 16.99626748 6.78973675 17.00558662 C6.05988477 17.00090429 5.33003279 16.99622196 4.57806408 16.99139774 C0.60721699 17.02085016 -2.52601812 17.38505622 -6.0579958 19.25726891 C-8.99800261 23.75153868 -8.335577 29.36662932 -8.31196308 34.54364586 C-8.31508306 35.58977956 -8.31820304 36.63591326 -8.32141757 37.71374798 C-8.32940438 41.22440576 -8.32307116 44.73489103 -8.31678486 48.24555016 C-8.31949441 50.76031152 -8.32305514 53.2750721 -8.32740498 55.78983116 C-8.33558687 61.91432889 -8.33437696 68.03876258 -8.32857969 74.16326118 C-8.32406323 79.14069696 -8.32345024 84.11811901 -8.32562733 89.09555626 C-8.32593379 89.80392767 -8.32624026 90.51229909 -8.32655601 91.2421363 C-8.32719546 92.68117198 -8.32784389 94.12020765 -8.32850119 95.55924332 C-8.3342045 109.0535919 -8.32764659 122.54791331 -8.31690046 136.04225743 C-8.30796495 147.62142851 -8.30951699 159.20055949 -8.31873798 170.77972984 C-8.32944061 184.22574047 -8.33365518 197.67172729 -8.32751346 211.11774158 C-8.32687636 212.55148824 -8.32624762 213.98523489 -8.32562733 215.41898155 C-8.32531878 216.12441528 -8.32501022 216.82984901 -8.32469232 217.55665952 C-8.32296536 222.52820839 -8.32588052 227.49974215 -8.33058643 232.47128868 C-8.33678077 239.16236541 -8.33237162 245.85335464 -8.32079792 252.54442787 C-8.31814881 255.00309307 -8.31892069 257.46176464 -8.32332325 259.92042732 C-8.32877012 263.27066901 -8.32195477 266.62066595 -8.31196308 269.97089195 C-8.31642452 270.94899991 -8.32088597 271.92710787 -8.32548261 272.93485546 C-8.41815716 279.39469132 -8.41815716 279.39469132 -6.0579958 285.25726891 C-2.40928489 287.07295072 0.55807111 287.50735426 4.60609818 287.50780869 C5.74220679 287.51280738 6.8783154 287.51780608 8.04885155 287.52295625 C9.29222611 287.51829304 10.53560067 287.51362983 11.81665325 287.5088253 C13.15455473 287.51096419 14.49245503 287.51398986 15.83035272 287.51782572 C19.50547745 287.52586728 23.18050042 287.52155827 26.85562479 287.51530695 C30.81953013 287.51077509 34.78341602 287.51781225 38.74731731 287.52361107 C45.61550943 287.53224564 52.48367578 287.53405187 59.35187244 287.53166389 C69.28650754 287.52856836 79.22108559 287.54019731 89.15570634 287.55621369 C105.27953555 287.58217861 121.40336481 287.60219671 137.52720928 287.61566734 C138.97483294 287.6168829 138.97483294 287.6168829 140.45170151 287.61812301 C154.15505411 287.62935047 167.85840265 287.634627 181.56175923 287.63751014 C183.00983767 287.63781612 183.00983767 287.63781612 184.48717022 287.63812828 C185.45138156 287.63832822 186.41559289 287.63852815 187.40902276 287.63873415 C203.47348761 287.64246384 219.53789056 287.66152559 235.60232443 287.69322264 C245.51494096 287.71216254 255.42739896 287.71808324 265.34002864 287.70740546 C272.12825775 287.70109851 278.91637293 287.70909241 285.70457704 287.72845958 C289.62409075 287.73916863 293.543328 287.74324764 297.46284008 287.7299881 C301.048541 287.71797919 304.63372234 287.72422021 308.21937781 287.74518009 C310.13588759 287.75155092 312.05243131 287.7381338 313.96890026 287.72409475 C315.10240113 287.73430894 316.235902 287.74452313 317.40375137 287.75504684 C318.38375722 287.75548158 319.36376308 287.75591632 320.37346607 287.75636423 C323.67018129 288.3992747 324.86276349 289.67697212 326.9420042 292.25726891 C327.4732542 294.25726891 327.4732542 294.25726891 327.4420042 296.25726891 C327.4523167 296.91726891 327.4626292 297.57726891 327.4732542 298.25726891 C326.69361143 301.19239464 325.28109397 302.3541534 322.9420042 304.25726891 C320.18315411 304.73828697 320.18315411 304.73828697 316.98009014 304.71137047 C315.77914715 304.71106834 314.57820415 304.71076622 313.34086895 304.71045494 C312.04908733 304.6898098 310.75730572 304.66916466 309.4263792 304.64789391 C308.08688992 304.64042961 306.74738968 304.63473757 305.40788555 304.63074303 C301.88948984 304.61550103 298.37175905 304.57623308 294.8536253 304.53192711 C291.26078225 304.49094257 287.66782811 304.47250588 284.0748167 304.45258141 C277.02995944 304.41185969 269.98692587 304.3335677 262.9420042 304.25726891 C262.9420042 314.81726891 262.9420042 325.37726891 262.9420042 336.25726891 C270.67465908 336.10041648 270.67465908 336.10041648 278.40611553 335.89691734 C290.15833828 335.7780434 299.40195968 339.10467441 307.9420042 347.25726891 C316.38606019 356.10262656 319.35558866 365.3047703 319.4732542 377.40961266 C318.79835016 381.02729682 317.83547451 382.01655392 314.9420042 384.25726891 C311.83726788 384.76063347 311.83726788 384.76063347 308.10997295 384.76520348 C307.0800246 384.77456342 307.0800246 384.77456342 306.02926922 384.78411245 C303.728998 384.80006459 301.42978324 384.78743058 299.1295042 384.77484703 C297.48024661 384.7802672 295.83099386 384.78738927 294.1817503 384.79608727 C289.70240205 384.81433616 285.22342195 384.80724671 280.74406719 384.79457092 C276.05873394 384.78445134 271.37343243 384.7938337 266.68809795 384.80011559 C258.81955073 384.80739503 250.95115364 384.7977965 243.0826292 384.77875328 C233.9825465 384.75698395 224.88282224 384.76403511 215.78274822 384.7860589 C207.97287201 384.80420445 200.16310378 384.80677537 192.35321331 384.79630423 C187.68727523 384.79006463 183.0215057 384.78924643 178.35557842 384.80245018 C173.96911603 384.81399579 169.58311627 384.80600677 165.19670391 384.78287315 C163.5858312 384.77757913 161.97491962 384.77911171 160.36406231 384.78792381 C158.1668592 384.7988363 155.97114347 384.78517031 153.77403545 384.76520348 C151.92902447 384.76294132 151.92902447 384.76294132 150.04674053 384.76063347 C146.34714751 384.160826 145.1632148 383.22528729 142.9420042 380.25726891 C141.19545922 370.89527409 143.50976307 361.80576235 148.4498167 353.81976891 C155.00765808 344.79129892 163.12075629 339.02583076 173.9420042 336.25726891 C178.36110404 335.82310119 182.6953127 335.8732678 187.1295042 336.00726891 C191.0276292 336.08976891 194.9257542 336.17226891 198.9420042 336.25726891 C198.9420042 325.69726891 198.9420042 315.13726891 198.9420042 304.25726891 C196.36645733 304.26615135 193.79091045 304.2750338 191.1373167 304.28418541 C166.88762599 304.36590531 142.63795343 304.42544333 118.38815594 304.46451759 C105.92053573 304.48514101 93.45301658 304.51325756 80.98546124 304.55902672 C70.11848476 304.59890103 59.25158148 304.62470332 48.38453388 304.63362288 C42.63073065 304.63883657 36.8771368 304.6510864 31.12340069 304.68018913 C25.70617739 304.70736741 20.28924946 304.71570891 14.87196445 304.70969963 C12.88541273 304.71079878 10.89885099 304.71873814 8.91235828 304.73409081 C6.19539864 304.75405641 3.4795473 304.74918418 0.76256084 304.73828697 C-0.01956272 304.74993834 -0.80168629 304.7615897 -1.60751057 304.77359414 C-8.18634486 304.70250088 -13.3393857 302.63960493 -18.3001833 298.29242516 C-18.83901142 297.64144859 -19.37783955 296.99047203 -19.9329958 296.31976891 C-20.48729267 295.67137047 -21.04158955 295.02297203 -21.6126833 294.35492516 C-24.24269702 290.53785118 -25.30727695 287.06259869 -25.3152647 282.4476862 C-25.32493804 281.02937851 -25.32493804 281.02937851 -25.3348068 279.58241814 C-25.3317096 278.55188327 -25.32861239 277.52134839 -25.32542133 276.45958519 C-25.32995245 275.35839845 -25.33448356 274.25721172 -25.33915198 273.12265569 C-25.351832 269.42554098 -25.35017326 265.7285729 -25.34852314 262.03143883 C-25.35450614 259.38361117 -25.36125439 256.73579508 -25.36887836 254.08797264 C-25.38548522 247.63762678 -25.39098777 241.18731748 -25.39210312 234.73695203 C-25.39305377 229.49304574 -25.39716491 224.2491515 -25.40350437 219.00524902 C-25.42111613 204.13417628 -25.43034338 189.2631324 -25.42884342 174.39204916 C-25.42876351 173.59048915 -25.4286836 172.78892915 -25.42860126 171.96307945 C-25.42847862 170.75926946 -25.42847862 170.75926946 -25.4283535 169.53114007 C-25.42754068 156.52616145 -25.44667756 143.52129868 -25.474878 130.51635357 C-25.50361293 117.15940181 -25.51741795 103.80250654 -25.51569045 90.44552308 C-25.51502674 82.94802637 -25.52051039 75.45065108 -25.54204655 67.95318222 C-25.56026643 61.56935768 -25.56459917 55.18570961 -25.5510277 48.80187031 C-25.54450188 45.54609867 -25.54654423 42.29073545 -25.5617342 39.03498268 C-25.57715143 35.50165362 -25.56790052 31.96921323 -25.55247211 28.43590355 C-25.56275924 27.41206084 -25.57304637 26.38821813 -25.58364522 25.33334988 C-25.51267787 17.97734169 -23.98885162 12.60182406 -19.09315205 7.01508141 C-18.44217548 6.47625328 -17.79119892 5.93742516 -17.1204958 5.38226891 C-16.47209736 4.82797203 -15.82369892 4.27367516 -15.15565205 3.70258141 C-10.27781394 0.34168737 -5.79544112 -0.03170243 0 0 Z M214.9420042 304.25726891 C214.9420042 314.81726891 214.9420042 325.37726891 214.9420042 336.25726891 C225.5020042 336.25726891 236.0620042 336.25726891 246.9420042 336.25726891 C246.9420042 325.69726891 246.9420042 315.13726891 246.9420042 304.25726891 C236.3820042 304.25726891 225.8220042 304.25726891 214.9420042 304.25726891 Z M164.6295042 361.81976891 C162.70836083 364.08379351 161.90370357 365.37217082 160.9420042 368.25726891 C207.1420042 368.25726891 253.3420042 368.25726891 300.9420042 368.25726891 C297.58821749 361.54969549 293.97086059 357.36762225 287.3170042 353.88226891 C281.37655306 352.31899229 275.69041036 352.10879848 269.59117413 352.11200523 C268.66841183 352.10864662 267.74564953 352.10528801 266.79492474 352.10182762 C263.75409366 352.09235374 260.71331786 352.09037627 257.67247295 352.08930016 C255.55026508 352.086085 253.42805744 352.08272073 251.30585003 352.0792141 C246.85993721 352.07323167 242.41404381 352.07137328 237.96812725 352.07196617 C232.28565015 352.07206772 226.60329821 352.05841913 220.92085075 352.04119396 C216.53780838 352.03004706 212.15479601 352.0280478 207.77174091 352.0285759 C205.6774868 352.0273997 203.58323182 352.02299825 201.48899174 352.01524353 C198.5529126 352.00538974 195.6171018 352.00834296 192.68101788 352.01434898 C191.82513073 352.00872948 190.96924358 352.00310997 190.08742046 351.99732018 C179.70866899 352.05096862 171.76238279 353.80795741 164.6295042 361.81976891 Z " fill="#000000" transform="translate(25.057995796203613,63.74273109436035)"/>
<path d="M0 0 C1.06077255 -0.00671722 2.1215451 -0.01343445 3.21446228 -0.02035522 C6.72008961 -0.03934785 10.2255256 -0.04326016 13.73120117 -0.04541016 C16.17111795 -0.05183742 18.61103395 -0.05856573 21.0509491 -0.06558228 C26.1661457 -0.07755838 31.28127474 -0.08126277 36.39648438 -0.08007812 C42.94350949 -0.07987497 49.49010035 -0.10717221 56.03702259 -0.14162254 C61.07714315 -0.16388623 66.11715914 -0.16791581 71.15732384 -0.16685867 C73.5705992 -0.16921561 75.9838774 -0.17804428 78.39710426 -0.19352341 C81.77676205 -0.21317076 85.1554826 -0.2073493 88.53515625 -0.1953125 C89.52712006 -0.20655151 90.51908386 -0.21779053 91.54110718 -0.22937012 C98.82624198 -0.16360776 104.17378339 1.40933061 109.70385742 6.25537109 C110.24268555 6.90634766 110.78151367 7.55732422 111.33666992 8.22802734 C111.8909668 8.87642578 112.44526367 9.52482422 113.01635742 10.19287109 C116.74803376 15.60884459 116.75085427 20.50826612 116.72909546 26.87336731 C116.73362657 27.84388037 116.73815768 28.81439343 116.7428261 29.81431597 C116.75549524 33.0692114 116.7538481 36.32394005 116.75219727 39.57885742 C116.75818095 41.91141475 116.76498612 44.2439701 116.77255249 46.57652283 C116.79023615 52.91541528 116.79490888 59.25425376 116.79618406 65.5931685 C116.79808244 70.88393497 116.80543929 76.17468884 116.81252825 81.46545047 C116.82817219 93.23481167 116.83386537 105.00414947 116.83251755 116.77352015 C116.83243764 117.47949629 116.83235772 118.18547244 116.83227539 118.9128418 C116.83219363 119.61968212 116.83211187 120.32652245 116.83202763 121.05478217 C116.83121488 132.50780119 116.85035021 143.96068865 116.87855212 155.41366962 C116.90729544 167.17956504 116.92109161 178.94539632 116.91936457 190.71132773 C116.91885451 197.31457289 116.92456229 203.91766919 116.94572067 210.52088356 C116.96507856 216.73187913 116.965244 222.94258344 116.95068741 229.15358925 C116.94859518 231.43200607 116.95332475 233.71044101 116.96540833 235.98882675 C116.98084768 239.10180582 116.97156057 242.21377899 116.95614624 245.32673645 C116.96643337 246.22606881 116.97672049 247.12540118 116.98731935 248.05198604 C116.91127272 255.01284442 115.1163006 260.26118737 110.49682617 265.53271484 C109.84584961 266.07154297 109.19487305 266.61037109 108.52416992 267.16552734 C107.87577148 267.71982422 107.22737305 268.27412109 106.55932617 268.84521484 C100.88776087 272.75299727 95.59312802 272.58711189 88.92333984 272.58105469 C87.86256729 272.58777191 86.80179474 272.59448914 85.70887756 272.60140991 C82.20325023 272.62040254 78.69781425 272.62431485 75.19213867 272.62646484 C72.7522219 272.63289211 70.3123059 272.63962042 67.87239075 272.64663696 C62.75719415 272.65861307 57.6420651 272.66231746 52.52685547 272.66113281 C45.97983035 272.66092966 39.43323949 272.6882269 32.88631725 272.72267723 C27.84619669 272.74494092 22.8061807 272.7489705 17.76601601 272.74791336 C15.35274065 272.7502703 12.93946245 272.75909897 10.52623558 272.77457809 C7.14657779 272.79422544 3.76785724 272.78840398 0.38818359 272.77636719 C-0.60378021 272.7876062 -1.59574402 272.79884521 -2.61776733 272.8104248 C-9.90290213 272.74466245 -15.25044355 271.17172408 -20.78051758 266.32568359 C-21.3193457 265.67470703 -21.85817383 265.02373047 -22.41333008 264.35302734 C-22.96762695 263.70462891 -23.52192383 263.05623047 -24.09301758 262.38818359 C-27.82469391 256.9722101 -27.82751443 252.07278856 -27.80575562 245.70768738 C-27.81028673 244.73717432 -27.81481784 243.76666126 -27.81948626 242.76673871 C-27.83215539 239.51184328 -27.83050825 236.25711464 -27.82885742 233.00219727 C-27.8348411 230.66963994 -27.84164628 228.33708459 -27.84921265 226.00453186 C-27.86689631 219.6656394 -27.87156903 213.32680093 -27.87284422 206.98788619 C-27.8747426 201.69711972 -27.88209945 196.40636585 -27.88918841 191.11560422 C-27.90483235 179.34624302 -27.91052552 167.57690521 -27.90917771 155.80753454 C-27.90909779 155.10155839 -27.90901788 154.39558225 -27.90893555 153.66821289 C-27.90885379 152.96137257 -27.90877202 152.25453224 -27.90868779 151.52627251 C-27.90787504 140.07325349 -27.92701036 128.62036604 -27.95521228 117.16738506 C-27.98395559 105.40148965 -27.99775177 93.63565837 -27.99602473 81.86972696 C-27.99551467 75.26648179 -28.00122244 68.6633855 -28.02238083 62.06017113 C-28.04173872 55.84917556 -28.04190415 49.63847125 -28.02734756 43.42746544 C-28.02525534 41.14904861 -28.0299849 38.87061368 -28.04206848 36.59222794 C-28.05750783 33.47924887 -28.04822072 30.3672757 -28.0328064 27.25431824 C-28.04309352 26.35498587 -28.05338065 25.45565351 -28.06397951 24.52906865 C-27.98793287 17.56821027 -26.19296076 12.31986732 -21.57348633 7.04833984 C-20.92250977 6.50951172 -20.2715332 5.97068359 -19.60083008 5.41552734 C-18.95243164 4.86123047 -18.3040332 4.30693359 -17.63598633 3.73583984 C-11.96442103 -0.17194258 -6.66978817 -0.0060572 0 0 Z M-9.53833008 19.29052734 C-12.06441841 23.81368346 -11.82133185 28.32147036 -11.79902649 33.35533142 C-11.80285204 34.27008588 -11.80667758 35.18484034 -11.81061906 36.12731463 C-11.8209403 39.19341464 -11.81695855 42.25932708 -11.81298828 45.32543945 C-11.81733522 47.52331211 -11.82251831 49.72118325 -11.82847595 51.91905212 C-11.84187872 57.89005991 -11.84244322 63.86100444 -11.83991265 69.83202434 C-11.83884387 74.81479801 -11.84372391 79.79755884 -11.84851807 84.78032976 C-11.86025237 97.20620068 -11.85938563 109.6320434 -11.85296126 122.05791534 C-11.84779181 132.84621277 -11.85904853 143.63441993 -11.87805948 154.4226995 C-11.89743654 165.50379466 -11.90540269 176.5848531 -11.90193623 187.66596609 C-11.90012155 193.88570498 -11.90277811 200.10536116 -11.91665077 206.32508659 C-11.92920641 212.17326062 -11.92730638 218.02125364 -11.91423988 223.86942482 C-11.91186967 226.01644832 -11.91462465 228.16348447 -11.92286301 230.31049347 C-11.9332943 233.24012005 -11.92525869 236.16913522 -11.91255188 239.09873962 C-11.91992616 239.94942439 -11.92730045 240.80010917 -11.9348982 241.67657226 C-11.88981918 246.61289314 -11.27839917 250.01361192 -8.53833008 254.29052734 C-4.24399871 257.0577103 0.80189538 256.57926172 5.74658203 256.56518555 C7.13773476 256.57285194 7.13773476 256.57285194 8.55699158 256.58067322 C11.61773155 256.59455463 14.67824599 256.59361358 17.73901367 256.59130859 C19.86983829 256.5951962 22.00066214 256.599531 24.13148499 256.60429382 C28.595983 256.61175283 33.06040193 256.61146696 37.52490234 256.60620117 C43.24252915 256.60040576 48.9598321 256.61734098 54.67740536 256.64054585 C59.07749826 256.65528592 63.4775132 256.65615452 67.87762642 256.65303612 C69.98552657 256.65354915 72.09343111 256.65878348 74.2013073 256.66884804 C77.15020606 256.68120077 80.09847442 256.67442762 83.04736328 256.6628418 C83.9156073 256.67048553 84.78385132 256.67812927 85.67840576 256.68600464 C90.62932571 256.64306681 94.280148 256.24002222 98.46166992 253.29052734 C100.98775826 248.76737123 100.7446717 244.25958432 100.72236633 239.22572327 C100.72619188 238.31096881 100.73001743 237.39621435 100.7339589 236.45374006 C100.74428015 233.38764005 100.74029839 230.3217276 100.73632812 227.25561523 C100.74067506 225.05774258 100.74585815 222.85987144 100.7518158 220.66200256 C100.76521857 214.69099478 100.76578306 208.72005025 100.7632525 202.74903035 C100.76218371 197.76625668 100.76706376 192.78349585 100.77185792 187.80072492 C100.78359221 175.37485401 100.78272547 162.94901129 100.77630111 150.52313935 C100.77113165 139.73484191 100.78238838 128.94663476 100.80139933 118.15835518 C100.82077639 107.07726003 100.82874253 95.99620159 100.82527608 84.91508859 C100.82346139 78.69534971 100.82611795 72.47569352 100.83999062 66.25596809 C100.85254625 60.40779407 100.85064622 54.55980104 100.83757973 48.71162987 C100.83520951 46.56460637 100.83796449 44.41757022 100.84620285 42.27056122 C100.85663414 39.34093464 100.84859854 36.41191946 100.83589172 33.48231506 C100.84695315 32.20628791 100.84695315 32.20628791 100.85823804 30.90448242 C100.81315902 25.96816155 100.20173901 22.56744277 97.46166992 18.29052734 C93.16733855 15.52334438 88.12144446 16.00179296 83.17675781 16.01586914 C81.78560509 16.00820274 81.78560509 16.00820274 80.36634827 16.00038147 C77.30560829 15.98650006 74.24509385 15.98744111 71.18432617 15.98974609 C69.05350155 15.98585849 66.9226777 15.98152368 64.79185486 15.97676086 C60.32735684 15.96930186 55.86293791 15.96958773 51.3984375 15.97485352 C45.6808107 15.98064892 39.96350775 15.96371371 34.24593449 15.94050884 C29.84584159 15.92576877 25.44582664 15.92490017 21.04571342 15.92801857 C18.93781327 15.92750554 16.82990873 15.92227121 14.72203255 15.91220665 C11.77313379 15.89985391 8.82486543 15.90662706 5.87597656 15.91821289 C4.57361053 15.90674728 4.57361053 15.90674728 3.24493408 15.89505005 C-1.70598587 15.93798788 -5.35680815 16.34103246 -9.53833008 19.29052734 Z " fill="#000000" transform="translate(395.538330078125,175.70947265625)"/>
<path d="M0 0 C8.80288754 6.34043826 15.4186507 14.72648904 17.58203125 25.4921875 C18.92007691 37.90936834 17.85729499 48.88109459 10.39453125 59.2421875 C3.58210875 67.3274193 -4.72289951 73.55522767 -15.48876953 74.71533203 C-28.40007937 75.61089799 -39.16843729 74.04490094 -49.3515625 65.46484375 C-57.86959925 57.33325857 -62.42046403 48.68416257 -62.88867188 36.85693359 C-63.04371176 24.34263074 -60.22647828 14.71931927 -51.41796875 5.4921875 C-37.63784493 -7.66275112 -16.31305228 -10.17259803 0 0 Z M-41.97265625 21.39453125 C-46.0977477 27.38148831 -46.13405017 33.44153962 -45.41796875 40.4921875 C-43.64454442 47.13691664 -38.97130405 51.66586709 -33.41796875 55.4921875 C-27.41909871 58.43281007 -20.53513345 58.59102538 -14.10546875 56.875 C-7.97664014 54.16969675 -3.17844083 49.08355055 -0.24609375 43.1015625 C1.69562739 36.98330909 1.64185035 29.90525368 -1.10546875 24.0546875 C-4.41170899 18.47107199 -9.15015755 13.55934922 -15.41796875 11.4921875 C-27.25601609 9.99542289 -34.32970758 12.45405874 -41.97265625 21.39453125 Z " fill="#000000" transform="translate(462.41796875,309.5078125)"/>
<path d="M0 0 C2.5 1.5 2.5 1.5 4 4 C4.791013 8.02098277 4.62153384 10.96411027 2.5 14.5 C-1.03588973 16.62153384 -3.97901723 16.791013 -8 16 C-10.5 14.5 -10.5 14.5 -12 12 C-12.791013 7.97901723 -12.62153384 5.03588973 -10.5 1.5 C-6.96411027 -0.62153384 -4.02098277 -0.791013 0 0 Z " fill="#000000" transform="translate(476,400)"/>
<path d="M0 0 C2.5 1.5 2.5 1.5 4 4 C4.791013 8.02098277 4.62153384 10.96411027 2.5 14.5 C-1.03588973 16.62153384 -3.97901723 16.791013 -8 16 C-10.5 14.5 -10.5 14.5 -12 12 C-12.791013 7.97901723 -12.62153384 5.03588973 -10.5 1.5 C-6.96411027 -0.62153384 -4.02098277 -0.791013 0 0 Z " fill="#000000" transform="translate(444,400)"/>
<path d="M0 0 C2.5 1.5 2.5 1.5 4 4 C4.791013 8.02098277 4.62153384 10.96411027 2.5 14.5 C-1.03588973 16.62153384 -3.97901723 16.791013 -8 16 C-10.5 14.5 -10.5 14.5 -12 12 C-12.791013 7.97901723 -12.62153384 5.03588973 -10.5 1.5 C-6.96411027 -0.62153384 -4.02098277 -0.791013 0 0 Z " fill="#000000" transform="translate(412,400)"/>
<path d="M0 0 C2.5 1.5 2.5 1.5 4 4 C4.791013 8.02098277 4.62153384 10.96411027 2.5 14.5 C-1.03588973 16.62153384 -3.97901723 16.791013 -8 16 C-10.5 14.5 -10.5 14.5 -12 12 C-12.791013 7.97901723 -12.62153384 5.03588973 -10.5 1.5 C-6.96411027 -0.62153384 -4.02098277 -0.791013 0 0 Z " fill="#000000" transform="translate(476,272)"/>
<path d="M0 0 C2.5 1.5 2.5 1.5 4 4 C4.791013 8.02098277 4.62153384 10.96411027 2.5 14.5 C-1.03588973 16.62153384 -3.97901723 16.791013 -8 16 C-10.5 14.5 -10.5 14.5 -12 12 C-12.791013 7.97901723 -12.62153384 5.03588973 -10.5 1.5 C-6.96411027 -0.62153384 -4.02098277 -0.791013 0 0 Z " fill="#000000" transform="translate(444,272)"/>
<path d="M0 0 C2.5 1.5 2.5 1.5 4 4 C4.791013 8.02098277 4.62153384 10.96411027 2.5 14.5 C-1.03588973 16.62153384 -3.97901723 16.791013 -8 16 C-10.5 14.5 -10.5 14.5 -12 12 C-12.791013 7.97901723 -12.62153384 5.03588973 -10.5 1.5 C-6.96411027 -0.62153384 -4.02098277 -0.791013 0 0 Z " fill="#000000" transform="translate(412,272)"/>
<path d="M0 0 C2.5 1.5 2.5 1.5 4 4 C4.791013 8.02098277 4.62153384 10.96411027 2.5 14.5 C-1.03588973 16.62153384 -3.97901723 16.791013 -8 16 C-10.5 14.5 -10.5 14.5 -12 12 C-12.791013 7.97901723 -12.62153384 5.03588973 -10.5 1.5 C-6.96411027 -0.62153384 -4.02098277 -0.791013 0 0 Z " fill="#000000" transform="translate(476,240)"/>
<path d="M0 0 C2.5 1.5 2.5 1.5 4 4 C4.791013 8.02098277 4.62153384 10.96411027 2.5 14.5 C-1.03588973 16.62153384 -3.97901723 16.791013 -8 16 C-10.5 14.5 -10.5 14.5 -12 12 C-12.791013 7.97901723 -12.62153384 5.03588973 -10.5 1.5 C-6.96411027 -0.62153384 -4.02098277 -0.791013 0 0 Z " fill="#000000" transform="translate(444,240)"/>
<path d="M0 0 C2.5 1.5 2.5 1.5 4 4 C4.791013 8.02098277 4.62153384 10.96411027 2.5 14.5 C-1.03588973 16.62153384 -3.97901723 16.791013 -8 16 C-10.5 14.5 -10.5 14.5 -12 12 C-12.791013 7.97901723 -12.62153384 5.03588973 -10.5 1.5 C-6.96411027 -0.62153384 -4.02098277 -0.791013 0 0 Z " fill="#000000" transform="translate(412,240)"/>
<path d="M0 0 C2.5 1.5 2.5 1.5 4 4 C4.791013 8.02098277 4.62153384 10.96411027 2.5 14.5 C-1.03588973 16.62153384 -3.97901723 16.791013 -8 16 C-10.5 14.5 -10.5 14.5 -12 12 C-12.791013 7.97901723 -12.62153384 5.03588973 -10.5 1.5 C-6.96411027 -0.62153384 -4.02098277 -0.791013 0 0 Z " fill="#000000" transform="translate(476,208)"/>
<path d="M0 0 C2.5 1.5 2.5 1.5 4 4 C4.791013 8.02098277 4.62153384 10.96411027 2.5 14.5 C-1.03588973 16.62153384 -3.97901723 16.791013 -8 16 C-10.5 14.5 -10.5 14.5 -12 12 C-12.791013 7.97901723 -12.62153384 5.03588973 -10.5 1.5 C-6.96411027 -0.62153384 -4.02098277 -0.791013 0 0 Z " fill="#000000" transform="translate(444,208)"/>
<path d="M0 0 C2.5 1.5 2.5 1.5 4 4 C4.791013 8.02098277 4.62153384 10.96411027 2.5 14.5 C-1.03588973 16.62153384 -3.97901723 16.791013 -8 16 C-10.5 14.5 -10.5 14.5 -12 12 C-12.791013 7.97901723 -12.62153384 5.03588973 -10.5 1.5 C-6.96411027 -0.62153384 -4.02098277 -0.791013 0 0 Z " fill="#000000" transform="translate(412,208)"/>
</svg>
